<mxfile host="Electron" agent="Mozilla/5.0 (Windows NT 10.0; Win64; x64) AppleWebKit/537.36 (KHTML, like Gecko) draw.io/25.0.2 Chrome/128.0.6613.186 Electron/32.2.5 Safari/537.36" version="25.0.2">
  <diagram id="f106602c-feb2-e66a-4537-3a34d633f6aa" name="Page-1">
    <mxGraphModel dx="11846" dy="4220" grid="1" gridSize="10" guides="1" tooltips="1" connect="1" arrows="1" fold="1" page="1" pageScale="1" pageWidth="1169" pageHeight="827" background="none" math="0" shadow="0">
      <root>
        <mxCell id="0" />
        <mxCell id="1" parent="0" />
        <mxCell id="lMhWHMwM5XV4kthdbhf3-29" value="" style="rounded=0;whiteSpace=wrap;html=1;align=left;verticalAlign=top;fillColor=#F0F0F0;glass=1;spacingLeft=5;fontStyle=1" vertex="1" parent="1">
          <mxGeometry x="-2487.28" y="1500" width="930" height="780" as="geometry" />
        </mxCell>
        <mxCell id="lMhWHMwM5XV4kthdbhf3-23" value="port 9105 - SSL&lt;div&gt;Controller-Connect&lt;/div&gt;&lt;div&gt;sync&lt;/div&gt;" style="rounded=0;orthogonalLoop=1;jettySize=auto;html=1;entryX=0.064;entryY=0.002;entryDx=0;entryDy=0;exitX=0.064;exitY=1.012;exitDx=0;exitDy=0;entryPerimeter=0;exitPerimeter=0;startArrow=classic;startFill=1;labelBackgroundColor=none;" edge="1" parent="1">
          <mxGeometry x="0.0397" y="-53" relative="1" as="geometry">
            <mxPoint x="-2364.6400000000003" y="1746.3781600000002" as="sourcePoint" />
            <mxPoint x="-2364.6400000000003" y="2080.36636" as="targetPoint" />
            <mxPoint as="offset" />
          </mxGeometry>
        </mxCell>
        <mxCell id="F-F-gPhgKNkpaGTW-qkE-176" value="" style="rounded=0;whiteSpace=wrap;html=1;align=left;glass=1;shadow=1;verticalAlign=top;spacingLeft=5;fillColor=#f5f5f5;fontColor=#333333;strokeColor=#666666;fontStyle=1" parent="1" vertex="1">
          <mxGeometry x="-2417.2799999999997" y="1561" width="760" height="183.18" as="geometry" />
        </mxCell>
        <mxCell id="F-F-gPhgKNkpaGTW-qkE-96" value="Backup &amp;amp; Restore Operation" style="rounded=0;whiteSpace=wrap;html=1;align=left;glass=1;shadow=1;verticalAlign=top;spacingLeft=5;fillColor=#f5f5f5;fontColor=#333333;strokeColor=#666666;fontStyle=1" parent="1" vertex="1">
          <mxGeometry x="-3680" y="487.7199999999999" width="880" height="257.73" as="geometry" />
        </mxCell>
        <mxCell id="F-F-gPhgKNkpaGTW-qkE-95" value="Kafka Management Operation via WEB GUI" style="rounded=0;whiteSpace=wrap;html=1;align=left;glass=1;shadow=1;verticalAlign=top;spacingLeft=5;fillColor=#f5f5f5;fontColor=#333333;strokeColor=#666666;fontStyle=1" parent="1" vertex="1">
          <mxGeometry x="-3680" y="778.8599999999999" width="880" height="257.73" as="geometry" />
        </mxCell>
        <mxCell id="F-F-gPhgKNkpaGTW-qkE-68" value="&lt;div&gt;&lt;div&gt;&lt;br&gt;&lt;/div&gt;&lt;/div&gt;" style="rounded=0;whiteSpace=wrap;html=1;align=left;glass=1;shadow=1;fillColor=#d5e8d4;strokeColor=#82b366;labelPosition=center;verticalLabelPosition=middle;verticalAlign=top;spacingTop=0;spacingLeft=5;spacingBottom=5;" parent="1" vertex="1">
          <mxGeometry x="-3085" y="566.58" width="240" height="110" as="geometry" />
        </mxCell>
        <mxCell id="GuzJ8BqgIlNCJu6hI-l5-1007" value="" style="fillColor=#F0F0F0;strokeColor=#666666;shadow=1;fontSize=14;align=left;spacing=10;fontColor=#333333;9E9E9E;verticalAlign=top;spacingTop=0;fontStyle=0;spacingLeft=30;html=1;glass=1;" parent="1" vertex="1">
          <mxGeometry x="-2490" y="50" width="1300" height="1390" as="geometry" />
        </mxCell>
        <mxCell id="F-F-gPhgKNkpaGTW-qkE-65" value="" style="rounded=0;whiteSpace=wrap;html=1;align=left;glass=1;shadow=1;verticalAlign=top;spacingLeft=5;fillColor=#f5f5f5;fontColor=#333333;strokeColor=#666666;fontStyle=1" parent="1" vertex="1">
          <mxGeometry x="-2455.5" y="1110" width="1245.5" height="295.45" as="geometry" />
        </mxCell>
        <mxCell id="F-F-gPhgKNkpaGTW-qkE-64" value="" style="rounded=0;whiteSpace=wrap;html=1;align=left;glass=1;shadow=1;verticalAlign=top;spacingLeft=5;fillColor=#f5f5f5;fontColor=#333333;strokeColor=#666666;fontStyle=1" parent="1" vertex="1">
          <mxGeometry x="-2455.5" y="780" width="1245.5" height="295.45" as="geometry" />
        </mxCell>
        <mxCell id="F-F-gPhgKNkpaGTW-qkE-60" value="" style="rounded=0;whiteSpace=wrap;html=1;align=left;glass=1;shadow=1;verticalAlign=top;spacingLeft=5;fillColor=#f5f5f5;fontColor=#333333;strokeColor=#666666;fontStyle=1" parent="1" vertex="1">
          <mxGeometry x="-2455.5" y="450" width="1245.5" height="295.45" as="geometry" />
        </mxCell>
        <mxCell id="JN4oBcEZUjCp0P2fSePL-43" value="" style="rounded=0;whiteSpace=wrap;html=1;align=left;glass=1;shadow=1;verticalAlign=top;spacingLeft=5;fillColor=#f5f5f5;fontColor=#333333;strokeColor=#666666;fontStyle=1" parent="1" vertex="1">
          <mxGeometry x="-2455.5" y="120" width="1245.5" height="295.45" as="geometry" />
        </mxCell>
        <mxCell id="F-F-gPhgKNkpaGTW-qkE-1" value="&lt;b&gt;vm:&lt;span style=&quot;white-space: pre;&quot;&gt;&#x9;&lt;/span&gt;&lt;span style=&quot;white-space: pre;&quot;&gt;&#x9;&lt;/span&gt;kafka-node-0&lt;span style=&quot;white-space: pre;&quot;&gt;&#x9;&lt;span style=&quot;white-space: pre;&quot;&gt;&#x9;&lt;span style=&quot;white-space: pre;&quot;&gt;&#x9;&lt;/span&gt;&lt;/span&gt;&lt;/span&gt;&lt;/b&gt;&lt;b&gt;cpu:&lt;span style=&quot;white-space: pre;&quot;&gt;&#x9;&lt;/span&gt;4&lt;/b&gt;&lt;div&gt;&lt;b&gt;ip:&lt;span style=&quot;white-space: pre;&quot;&gt;&#x9;&lt;/span&gt;&lt;span style=&quot;white-space: pre;&quot;&gt;&#x9;&lt;/span&gt;10.1.10.1&lt;span style=&quot;white-space: pre;&quot;&gt;&#x9;&lt;/span&gt;&lt;span style=&quot;white-space: pre;&quot;&gt;&#x9;&lt;/span&gt;&lt;span style=&quot;white-space: pre;&quot;&gt;&#x9;&lt;span style=&quot;white-space: pre;&quot;&gt;&#x9;&lt;/span&gt;&lt;/span&gt;ram:&lt;span style=&quot;white-space: pre;&quot;&gt;&#x9;&lt;/span&gt;16&lt;/b&gt;&lt;/div&gt;" style="rounded=0;whiteSpace=wrap;html=1;align=left;glass=0;shadow=1;fillColor=#d5e8d4;strokeColor=#82b366;labelPosition=center;verticalLabelPosition=middle;verticalAlign=top;spacingTop=0;spacingLeft=5;spacingBottom=5;" parent="1" vertex="1">
          <mxGeometry x="-1960" y="147.72" width="350" height="240" as="geometry" />
        </mxCell>
        <mxCell id="F-F-gPhgKNkpaGTW-qkE-2" value="&lt;div style=&quot;&quot;&gt;&lt;span style=&quot;background-color: initial;&quot;&gt;docker engine&lt;/span&gt;&lt;/div&gt;" style="rounded=0;whiteSpace=wrap;html=1;verticalAlign=bottom;align=left;spacingLeft=5;fillColor=#dae8fc;strokeColor=#6c8ebf;glass=1;shadow=1;spacingBottom=5;" parent="1" vertex="1">
          <mxGeometry x="-1951.61" y="187.72" width="331.61" height="150" as="geometry" />
        </mxCell>
        <mxCell id="F-F-gPhgKNkpaGTW-qkE-3" value="&lt;div&gt;image:&lt;span style=&quot;white-space: pre;&quot;&gt;&#x9;&lt;/span&gt;&lt;span style=&quot;white-space: pre;&quot;&gt;&#x9;&lt;/span&gt;&lt;span style=&quot;background-color: initial;&quot;&gt;factorhouse/kpow-ce:latest&lt;/span&gt;&lt;/div&gt;&lt;div&gt;&lt;br&gt;&lt;/div&gt;&lt;div&gt;&lt;span style=&quot;background-color: initial;&quot;&gt;binds:&lt;/span&gt;&lt;/div&gt;&lt;div&gt;&lt;div&gt;&lt;span style=&quot;background-color: initial;&quot;&gt;&lt;span style=&quot;white-space: pre;&quot;&gt;&#x9;&lt;/span&gt;/data/cluster/gui/kpow&lt;br&gt;&lt;/span&gt;&lt;/div&gt;&lt;/div&gt;&lt;div&gt;&lt;div&gt;&lt;br&gt;&lt;/div&gt;&lt;/div&gt;&lt;div&gt;&lt;span style=&quot;background-color: initial;&quot;&gt;&lt;br&gt;&lt;/span&gt;&lt;/div&gt;" style="rounded=0;whiteSpace=wrap;html=1;fillColor=#fff2cc;strokeColor=#d6b656;glass=1;shadow=1;align=left;verticalAlign=top;spacingLeft=5;spacingBottom=5;spacing=0;" parent="1" vertex="1">
          <mxGeometry x="-1941.61" y="197.72" width="311.61" height="110" as="geometry" />
        </mxCell>
        <mxCell id="F-F-gPhgKNkpaGTW-qkE-4" value="&lt;b&gt;System&lt;/b&gt;&lt;div&gt;&lt;b&gt;50 GB&lt;/b&gt;&lt;/div&gt;" style="rounded=0;whiteSpace=wrap;html=1;fillColor=#0050ef;fontColor=#ffffff;strokeColor=#001DBC;shadow=1;" parent="1" vertex="1">
          <mxGeometry x="-1951.61" y="347.72" width="51.61" height="30" as="geometry" />
        </mxCell>
        <mxCell id="F-F-gPhgKNkpaGTW-qkE-5" value="&lt;b&gt;Data - SSD&lt;/b&gt;&lt;div&gt;&lt;b&gt;500 GB&lt;/b&gt;&lt;/div&gt;" style="rounded=0;whiteSpace=wrap;html=1;fillColor=#0050ef;fontColor=#ffffff;strokeColor=#001DBC;shadow=1;" parent="1" vertex="1">
          <mxGeometry x="-1890" y="347.72" width="80" height="30" as="geometry" />
        </mxCell>
        <mxCell id="F-F-gPhgKNkpaGTW-qkE-6" value="&lt;b&gt;Backup - HDD&lt;/b&gt;&lt;div&gt;&lt;b&gt;2000 GB&lt;/b&gt;&lt;/div&gt;" style="rounded=0;whiteSpace=wrap;html=1;fillColor=#0050ef;fontColor=#ffffff;strokeColor=#001DBC;shadow=1;" parent="1" vertex="1">
          <mxGeometry x="-1800" y="347.72" width="180" height="30" as="geometry" />
        </mxCell>
        <mxCell id="F-F-gPhgKNkpaGTW-qkE-7" value="&lt;b&gt;vm:&lt;span style=&quot;white-space: pre;&quot;&gt;&#x9;&lt;/span&gt;&lt;span style=&quot;white-space: pre;&quot;&gt;&#x9;&lt;/span&gt;kafka-node-2&lt;span style=&quot;white-space: pre;&quot;&gt;&#x9;&lt;span style=&quot;white-space: pre;&quot;&gt;&#x9;&lt;span style=&quot;white-space: pre;&quot;&gt;&#x9;&lt;/span&gt;&lt;/span&gt;cpu:&lt;span style=&quot;white-space: pre;&quot;&gt;&#x9;&lt;/span&gt;4&lt;/span&gt;&lt;/b&gt;&lt;div&gt;&lt;b&gt;ip:&lt;span style=&quot;white-space: pre;&quot;&gt;&#x9;&lt;/span&gt;&lt;span style=&quot;white-space: pre;&quot;&gt;&#x9;&lt;/span&gt;10.1.11.2&lt;span style=&quot;white-space: pre;&quot;&gt;&#x9;&lt;/span&gt;&lt;span style=&quot;white-space: pre;&quot;&gt;&#x9;&lt;/span&gt;&lt;span style=&quot;white-space: pre;&quot;&gt;&#x9;&lt;/span&gt;&lt;span style=&quot;white-space: pre;&quot;&gt;&#x9;&lt;/span&gt;ram:&lt;span style=&quot;white-space: pre;&quot;&gt;&#x9;&lt;/span&gt;8&lt;/b&gt;&lt;/div&gt;" style="rounded=0;whiteSpace=wrap;html=1;align=left;glass=0;shadow=1;fillColor=#d5e8d4;strokeColor=#82b366;labelPosition=center;verticalLabelPosition=middle;verticalAlign=top;spacingTop=0;spacingLeft=5;spacingBottom=5;" parent="1" vertex="1">
          <mxGeometry x="-1960" y="477.72" width="350" height="240" as="geometry" />
        </mxCell>
        <mxCell id="F-F-gPhgKNkpaGTW-qkE-8" value="&lt;div style=&quot;&quot;&gt;&lt;span style=&quot;background-color: initial;&quot;&gt;docker engine&lt;/span&gt;&lt;/div&gt;" style="rounded=0;whiteSpace=wrap;html=1;verticalAlign=bottom;align=left;spacingLeft=5;fillColor=#dae8fc;strokeColor=#6c8ebf;glass=1;shadow=1;spacingBottom=5;" parent="1" vertex="1">
          <mxGeometry x="-1951.61" y="517.72" width="331.61" height="150" as="geometry" />
        </mxCell>
        <mxCell id="F-F-gPhgKNkpaGTW-qkE-9" value="&lt;div&gt;image:&lt;span style=&quot;white-space: pre;&quot;&gt;&#x9;&lt;/span&gt;&lt;span style=&quot;white-space: pre;&quot;&gt;&#x9;&lt;/span&gt;&lt;span style=&quot;background-color: initial;&quot;&gt;apache/kafka:3.9.0&lt;/span&gt;&lt;/div&gt;&lt;div&gt;&lt;br&gt;&lt;/div&gt;&lt;div&gt;&lt;span style=&quot;background-color: initial;&quot;&gt;binds:&lt;/span&gt;&lt;/div&gt;&lt;div&gt;&lt;div&gt;&lt;div&gt;&lt;span style=&quot;background-color: initial;&quot;&gt;&lt;span style=&quot;white-space: pre;&quot;&gt;&#x9;&lt;/span&gt;/data/cluster/config&lt;/span&gt;&lt;span style=&quot;background-color: initial; white-space: pre;&quot;&gt;&#x9;&lt;span style=&quot;white-space: pre;&quot;&gt;&#x9;&lt;/span&gt;&lt;/span&gt;&lt;span style=&quot;background-color: initial;&quot;&gt;/data/cluster/data/meta&lt;/span&gt;&lt;span style=&quot;background-color: initial;&quot;&gt;&lt;br&gt;&lt;/span&gt;&lt;/div&gt;&lt;/div&gt;&lt;/div&gt;&lt;div&gt;&lt;div&gt;&lt;span style=&quot;background-color: initial;&quot;&gt;&lt;span style=&quot;white-space: pre;&quot;&gt;&#x9;&lt;/span&gt;/data/cluster/certificates&lt;span style=&quot;white-space: pre;&quot;&gt;&#x9;&lt;/span&gt;&lt;/span&gt;&lt;span style=&quot;background-color: initial;&quot;&gt;/data/cluster/data/logs&lt;/span&gt;&lt;/div&gt;&lt;/div&gt;&lt;div&gt;&lt;div&gt;&lt;span style=&quot;background-color: initial;&quot;&gt;&lt;span style=&quot;white-space: pre;&quot;&gt;&#x9;&lt;/span&gt;/data/cluster/credentials&lt;span style=&quot;white-space: pre;&quot;&gt;&#x9;&lt;/span&gt;&lt;/span&gt;&lt;span style=&quot;background-color: initial;&quot;&gt;/data/cluster/logs&lt;/span&gt;&lt;/div&gt;&lt;/div&gt;&lt;div&gt;&lt;span style=&quot;background-color: initial;&quot;&gt;&lt;br&gt;&lt;/span&gt;&lt;/div&gt;&lt;div&gt;&lt;div&gt;&lt;br&gt;&lt;/div&gt;&lt;/div&gt;&lt;div&gt;&lt;span style=&quot;background-color: initial;&quot;&gt;&lt;br&gt;&lt;/span&gt;&lt;/div&gt;" style="rounded=0;whiteSpace=wrap;html=1;fillColor=#fff2cc;strokeColor=#d6b656;glass=1;shadow=1;align=left;verticalAlign=top;spacingLeft=5;spacingBottom=5;spacing=0;" parent="1" vertex="1">
          <mxGeometry x="-1941.61" y="527.72" width="311.61" height="110" as="geometry" />
        </mxCell>
        <mxCell id="F-F-gPhgKNkpaGTW-qkE-10" value="&lt;b&gt;System&lt;/b&gt;&lt;div&gt;&lt;b&gt;50 GB&lt;/b&gt;&lt;/div&gt;" style="rounded=0;whiteSpace=wrap;html=1;fillColor=#0050ef;fontColor=#ffffff;strokeColor=#001DBC;shadow=1;" parent="1" vertex="1">
          <mxGeometry x="-1951.61" y="677.72" width="51.61" height="30" as="geometry" />
        </mxCell>
        <mxCell id="F-F-gPhgKNkpaGTW-qkE-11" value="&lt;b&gt;Data - SSD&lt;/b&gt;&lt;div&gt;&lt;b&gt;500 GB&lt;/b&gt;&lt;/div&gt;" style="rounded=0;whiteSpace=wrap;html=1;fillColor=#0050ef;fontColor=#ffffff;strokeColor=#001DBC;shadow=1;" parent="1" vertex="1">
          <mxGeometry x="-1890" y="677.72" width="270" height="30" as="geometry" />
        </mxCell>
        <mxCell id="F-F-gPhgKNkpaGTW-qkE-20" value="&lt;b&gt;vm:&lt;span style=&quot;white-space: pre;&quot;&gt;&#x9;&lt;span style=&quot;white-space: pre;&quot;&gt;&#x9;&lt;/span&gt;&lt;/span&gt;kafka-node-1&lt;span style=&quot;white-space: pre;&quot;&gt;&#x9;&lt;span style=&quot;white-space: pre;&quot;&gt;&#x9;&lt;span style=&quot;white-space: pre;&quot;&gt;&#x9;&lt;/span&gt;&lt;/span&gt;&lt;/span&gt;&lt;/b&gt;&lt;b&gt;cpu: &lt;span style=&quot;white-space: pre;&quot;&gt;&#x9;&lt;/span&gt;4&lt;/b&gt;&lt;div&gt;&lt;b&gt;ip:&lt;span style=&quot;white-space: pre;&quot;&gt;&#x9;&lt;/span&gt;&lt;span style=&quot;white-space: pre;&quot;&gt;&#x9;&lt;/span&gt;10.1.11.1&lt;span style=&quot;white-space: pre;&quot;&gt;&#x9;&lt;/span&gt;&lt;span style=&quot;white-space: pre;&quot;&gt;&#x9;&lt;/span&gt;&lt;span style=&quot;white-space: pre;&quot;&gt;&#x9;&lt;span style=&quot;white-space: pre;&quot;&gt;&#x9;&lt;/span&gt;&lt;/span&gt;ram:&lt;span style=&quot;white-space: pre;&quot;&gt;&#x9;&lt;/span&gt;8&lt;/b&gt;&lt;/div&gt;" style="rounded=0;whiteSpace=wrap;html=1;align=left;glass=0;shadow=1;fillColor=#d5e8d4;strokeColor=#82b366;labelPosition=center;verticalLabelPosition=middle;verticalAlign=top;spacingTop=0;spacingLeft=5;spacingBottom=5;" parent="1" vertex="1">
          <mxGeometry x="-2329.9999999999995" y="477.72" width="350" height="240" as="geometry" />
        </mxCell>
        <mxCell id="F-F-gPhgKNkpaGTW-qkE-21" value="&lt;div style=&quot;&quot;&gt;&lt;span style=&quot;background-color: initial;&quot;&gt;docker engine&lt;/span&gt;&lt;/div&gt;" style="rounded=0;whiteSpace=wrap;html=1;verticalAlign=bottom;align=left;spacingLeft=5;fillColor=#dae8fc;strokeColor=#6c8ebf;glass=1;shadow=1;spacingBottom=5;" parent="1" vertex="1">
          <mxGeometry x="-2321.6099999999997" y="517.72" width="331.61" height="150" as="geometry" />
        </mxCell>
        <mxCell id="F-F-gPhgKNkpaGTW-qkE-22" value="&lt;div&gt;image:&lt;span style=&quot;white-space: pre;&quot;&gt;&#x9;&lt;/span&gt;&lt;span style=&quot;white-space: pre;&quot;&gt;&#x9;&lt;/span&gt;&lt;span style=&quot;background-color: initial;&quot;&gt;apache/kafka:3.9.0&lt;/span&gt;&lt;/div&gt;&lt;div&gt;&lt;span style=&quot;background-color: initial;&quot;&gt;&lt;br&gt;&lt;/span&gt;&lt;/div&gt;&lt;div&gt;&lt;span style=&quot;background-color: initial;&quot;&gt;binds:&lt;/span&gt;&lt;br&gt;&lt;/div&gt;&lt;div&gt;&lt;div&gt;&lt;div&gt;&lt;span style=&quot;background-color: initial;&quot;&gt;&lt;span style=&quot;white-space: pre;&quot;&gt;&#x9;&lt;/span&gt;/data/cluster/config&lt;/span&gt;&lt;span style=&quot;background-color: initial; white-space: pre;&quot;&gt;&#x9;&lt;span style=&quot;white-space: pre;&quot;&gt;&#x9;&lt;/span&gt;&lt;/span&gt;&lt;span style=&quot;background-color: initial;&quot;&gt;/data/cluster/data/meta&lt;/span&gt;&lt;span style=&quot;background-color: initial;&quot;&gt;&lt;br&gt;&lt;/span&gt;&lt;/div&gt;&lt;/div&gt;&lt;/div&gt;&lt;div&gt;&lt;div&gt;&lt;span style=&quot;background-color: initial;&quot;&gt;&lt;span style=&quot;white-space: pre;&quot;&gt;&#x9;&lt;/span&gt;/data/cluster/certificates&lt;span style=&quot;white-space: pre;&quot;&gt;&#x9;&lt;/span&gt;&lt;/span&gt;&lt;span style=&quot;background-color: initial;&quot;&gt;/data/cluster/data/logs&lt;/span&gt;&lt;/div&gt;&lt;/div&gt;&lt;div&gt;&lt;div&gt;&lt;span style=&quot;background-color: initial;&quot;&gt;&lt;span style=&quot;white-space: pre;&quot;&gt;&#x9;&lt;/span&gt;/data/cluster/credentials&lt;span style=&quot;white-space: pre;&quot;&gt;&#x9;&lt;/span&gt;&lt;/span&gt;&lt;span style=&quot;background-color: initial;&quot;&gt;/data/cluster/logs&lt;/span&gt;&lt;/div&gt;&lt;/div&gt;&lt;div&gt;&lt;span style=&quot;background-color: initial;&quot;&gt;&lt;br&gt;&lt;/span&gt;&lt;/div&gt;&lt;div&gt;&lt;div&gt;&lt;br&gt;&lt;/div&gt;&lt;/div&gt;&lt;div&gt;&lt;span style=&quot;background-color: initial;&quot;&gt;&lt;br&gt;&lt;/span&gt;&lt;/div&gt;" style="rounded=0;whiteSpace=wrap;html=1;fillColor=#fff2cc;strokeColor=#d6b656;glass=1;shadow=1;align=left;verticalAlign=top;spacingLeft=5;spacingBottom=5;spacing=0;" parent="1" vertex="1">
          <mxGeometry x="-2311.6099999999997" y="527.72" width="311.61" height="110" as="geometry" />
        </mxCell>
        <mxCell id="F-F-gPhgKNkpaGTW-qkE-23" value="&lt;b&gt;System&lt;/b&gt;&lt;div&gt;&lt;b&gt;50 GB&lt;/b&gt;&lt;/div&gt;" style="rounded=0;whiteSpace=wrap;html=1;fillColor=#0050ef;fontColor=#ffffff;strokeColor=#001DBC;shadow=1;" parent="1" vertex="1">
          <mxGeometry x="-2321.61" y="677.72" width="51.61" height="30" as="geometry" />
        </mxCell>
        <mxCell id="F-F-gPhgKNkpaGTW-qkE-24" value="&lt;b&gt;Data - SSD&lt;/b&gt;&lt;div&gt;&lt;b&gt;500 GB&lt;/b&gt;&lt;/div&gt;" style="rounded=0;whiteSpace=wrap;html=1;fillColor=#0050ef;fontColor=#ffffff;strokeColor=#001DBC;shadow=1;" parent="1" vertex="1">
          <mxGeometry x="-2259.9999999999995" y="677.72" width="270" height="30" as="geometry" />
        </mxCell>
        <mxCell id="F-F-gPhgKNkpaGTW-qkE-25" value="&lt;b&gt;vm:&lt;span style=&quot;white-space: pre;&quot;&gt;&#x9;&lt;/span&gt;&lt;span style=&quot;white-space: pre;&quot;&gt;&#x9;&lt;/span&gt;kafka-node-3&lt;span style=&quot;white-space: pre;&quot;&gt;&#x9;&lt;span style=&quot;white-space: pre;&quot;&gt;&#x9;&lt;/span&gt;&lt;span style=&quot;white-space: pre;&quot;&gt;&#x9;&lt;/span&gt;cpu:&lt;span style=&quot;white-space: pre;&quot;&gt;&#x9;&lt;/span&gt;4&lt;/span&gt;&lt;/b&gt;&lt;div&gt;&lt;b&gt;ip:&lt;span style=&quot;white-space: pre;&quot;&gt;&#x9;&lt;/span&gt;&lt;span style=&quot;white-space: pre;&quot;&gt;&#x9;&lt;/span&gt;10.1.11.3&lt;span style=&quot;white-space: pre;&quot;&gt;&#x9;&lt;/span&gt;&lt;span style=&quot;white-space: pre;&quot;&gt;&#x9;&lt;/span&gt;&lt;span style=&quot;white-space: pre;&quot;&gt;&#x9;&lt;/span&gt;&lt;span style=&quot;white-space: pre;&quot;&gt;&#x9;&lt;/span&gt;ram:&lt;span style=&quot;white-space: pre;&quot;&gt;&#x9;&lt;/span&gt;8&lt;/b&gt;&lt;/div&gt;" style="rounded=0;whiteSpace=wrap;html=1;align=left;glass=0;shadow=1;fillColor=#d5e8d4;strokeColor=#82b366;labelPosition=center;verticalLabelPosition=middle;verticalAlign=top;spacingTop=0;spacingLeft=5;spacingBottom=5;" parent="1" vertex="1">
          <mxGeometry x="-1590" y="477.72" width="350" height="240" as="geometry" />
        </mxCell>
        <mxCell id="F-F-gPhgKNkpaGTW-qkE-26" value="&lt;div style=&quot;&quot;&gt;&lt;span style=&quot;background-color: initial;&quot;&gt;docker engine&lt;/span&gt;&lt;/div&gt;" style="rounded=0;whiteSpace=wrap;html=1;verticalAlign=bottom;align=left;spacingLeft=5;fillColor=#dae8fc;strokeColor=#6c8ebf;glass=1;shadow=1;spacingBottom=5;" parent="1" vertex="1">
          <mxGeometry x="-1581.61" y="517.72" width="331.61" height="150" as="geometry" />
        </mxCell>
        <mxCell id="F-F-gPhgKNkpaGTW-qkE-27" value="&lt;div&gt;image:&lt;span style=&quot;white-space: pre;&quot;&gt;&#x9;&lt;/span&gt;&lt;span style=&quot;white-space: pre;&quot;&gt;&#x9;&lt;/span&gt;&lt;span style=&quot;background-color: initial;&quot;&gt;apache/kafka:3.9.0&lt;/span&gt;&lt;/div&gt;&lt;div&gt;&lt;br&gt;&lt;/div&gt;&lt;div&gt;&lt;span style=&quot;background-color: initial;&quot;&gt;binds:&lt;/span&gt;&lt;/div&gt;&lt;div&gt;&lt;div&gt;&lt;div&gt;&lt;span style=&quot;background-color: initial;&quot;&gt;&lt;span style=&quot;white-space: pre;&quot;&gt;&#x9;&lt;/span&gt;/data/cluster/config&lt;/span&gt;&lt;span style=&quot;background-color: initial; white-space: pre;&quot;&gt;&#x9;&lt;span style=&quot;white-space: pre;&quot;&gt;&#x9;&lt;/span&gt;&lt;/span&gt;&lt;span style=&quot;background-color: initial;&quot;&gt;/data/cluster/data/meta&lt;/span&gt;&lt;span style=&quot;background-color: initial;&quot;&gt;&lt;br&gt;&lt;/span&gt;&lt;/div&gt;&lt;/div&gt;&lt;/div&gt;&lt;div&gt;&lt;div&gt;&lt;span style=&quot;background-color: initial;&quot;&gt;&lt;span style=&quot;white-space: pre;&quot;&gt;&#x9;&lt;/span&gt;/data/cluster/certificates&lt;span style=&quot;white-space: pre;&quot;&gt;&#x9;&lt;/span&gt;&lt;/span&gt;&lt;span style=&quot;background-color: initial;&quot;&gt;/data/cluster/data/logs&lt;/span&gt;&lt;/div&gt;&lt;/div&gt;&lt;div&gt;&lt;div&gt;&lt;span style=&quot;background-color: initial;&quot;&gt;&lt;span style=&quot;white-space: pre;&quot;&gt;&#x9;&lt;/span&gt;/data/cluster/credentials&lt;span style=&quot;white-space: pre;&quot;&gt;&#x9;&lt;/span&gt;&lt;/span&gt;&lt;span style=&quot;background-color: initial;&quot;&gt;/data/cluster/logs&lt;/span&gt;&lt;/div&gt;&lt;/div&gt;&lt;div&gt;&lt;span style=&quot;background-color: initial;&quot;&gt;&lt;br&gt;&lt;/span&gt;&lt;/div&gt;&lt;div&gt;&lt;div&gt;&lt;br&gt;&lt;/div&gt;&lt;/div&gt;&lt;div&gt;&lt;span style=&quot;background-color: initial;&quot;&gt;&lt;br&gt;&lt;/span&gt;&lt;/div&gt;" style="rounded=0;whiteSpace=wrap;html=1;fillColor=#fff2cc;strokeColor=#d6b656;glass=1;shadow=1;align=left;verticalAlign=top;spacingLeft=5;spacingBottom=5;spacing=0;" parent="1" vertex="1">
          <mxGeometry x="-1571.61" y="527.72" width="311.61" height="110" as="geometry" />
        </mxCell>
        <mxCell id="F-F-gPhgKNkpaGTW-qkE-28" value="&lt;b&gt;System&lt;/b&gt;&lt;div&gt;&lt;b&gt;50 GB&lt;/b&gt;&lt;/div&gt;" style="rounded=0;whiteSpace=wrap;html=1;fillColor=#0050ef;fontColor=#ffffff;strokeColor=#001DBC;shadow=1;" parent="1" vertex="1">
          <mxGeometry x="-1581.61" y="677.72" width="51.61" height="30" as="geometry" />
        </mxCell>
        <mxCell id="F-F-gPhgKNkpaGTW-qkE-29" value="Data - SSD&lt;div&gt;500 GB&lt;/div&gt;" style="rounded=0;whiteSpace=wrap;html=1;fillColor=#0050ef;fontColor=#ffffff;strokeColor=#001DBC;shadow=1;" parent="1" vertex="1">
          <mxGeometry x="-1520" y="677.72" width="270" height="30" as="geometry" />
        </mxCell>
        <mxCell id="F-F-gPhgKNkpaGTW-qkE-30" value="&lt;b&gt;vm:&lt;span style=&quot;white-space: pre;&quot;&gt;&#x9;&lt;/span&gt;&lt;span style=&quot;white-space: pre;&quot;&gt;&#x9;&lt;/span&gt;kafka-node-5&lt;span style=&quot;white-space: pre;&quot;&gt;&#x9;&lt;span style=&quot;white-space: pre;&quot;&gt;&#x9;&lt;/span&gt;&lt;span style=&quot;white-space: pre;&quot;&gt;&#x9;&lt;/span&gt;cpu:&lt;span style=&quot;white-space: pre;&quot;&gt;&#x9;&lt;/span&gt;4&lt;/span&gt;&lt;/b&gt;&lt;div&gt;&lt;b&gt;ip:&lt;span style=&quot;white-space: pre;&quot;&gt;&#x9;&lt;/span&gt;&lt;span style=&quot;white-space: pre;&quot;&gt;&#x9;&lt;/span&gt;10.1.12.2&lt;span style=&quot;white-space: pre;&quot;&gt;&#x9;&lt;/span&gt;&lt;span style=&quot;white-space: pre;&quot;&gt;&#x9;&lt;/span&gt;&lt;span style=&quot;white-space: pre;&quot;&gt;&#x9;&lt;/span&gt;&lt;span style=&quot;white-space: pre;&quot;&gt;&#x9;&lt;/span&gt;ram:&lt;span style=&quot;white-space: pre;&quot;&gt;&#x9;&lt;/span&gt;8&lt;/b&gt;&lt;/div&gt;" style="rounded=0;whiteSpace=wrap;html=1;align=left;glass=0;shadow=1;fillColor=#d5e8d4;strokeColor=#82b366;labelPosition=center;verticalLabelPosition=middle;verticalAlign=top;spacingTop=0;spacingLeft=5;spacingBottom=5;" parent="1" vertex="1">
          <mxGeometry x="-1960.81" y="807.72" width="350" height="240" as="geometry" />
        </mxCell>
        <mxCell id="F-F-gPhgKNkpaGTW-qkE-31" value="&lt;div style=&quot;&quot;&gt;&lt;span style=&quot;background-color: initial;&quot;&gt;docker engine&lt;/span&gt;&lt;/div&gt;" style="rounded=0;whiteSpace=wrap;html=1;verticalAlign=bottom;align=left;spacingLeft=5;fillColor=#dae8fc;strokeColor=#6c8ebf;glass=1;shadow=1;spacingBottom=5;" parent="1" vertex="1">
          <mxGeometry x="-1952.42" y="847.72" width="331.61" height="150" as="geometry" />
        </mxCell>
        <mxCell id="F-F-gPhgKNkpaGTW-qkE-32" value="&lt;div&gt;image:&lt;span style=&quot;white-space: pre;&quot;&gt;&#x9;&lt;/span&gt;&lt;span style=&quot;white-space: pre;&quot;&gt;&#x9;&lt;/span&gt;&lt;span style=&quot;background-color: initial;&quot;&gt;apache/kafka:3.9.0&lt;/span&gt;&lt;/div&gt;&lt;div&gt;&lt;br&gt;&lt;/div&gt;&lt;div&gt;&lt;span style=&quot;background-color: initial;&quot;&gt;binds:&lt;/span&gt;&lt;/div&gt;&lt;div&gt;&lt;div&gt;&lt;div&gt;&lt;span style=&quot;background-color: initial;&quot;&gt;&lt;span style=&quot;white-space: pre;&quot;&gt;&#x9;&lt;/span&gt;/data/cluster/config&lt;/span&gt;&lt;span style=&quot;background-color: initial; white-space: pre;&quot;&gt;&#x9;&lt;span style=&quot;white-space: pre;&quot;&gt;&#x9;&lt;/span&gt;&lt;/span&gt;&lt;span style=&quot;background-color: initial;&quot;&gt;/data/cluster/data/meta&lt;/span&gt;&lt;span style=&quot;background-color: initial;&quot;&gt;&lt;br&gt;&lt;/span&gt;&lt;/div&gt;&lt;/div&gt;&lt;/div&gt;&lt;div&gt;&lt;div&gt;&lt;span style=&quot;background-color: initial;&quot;&gt;&lt;span style=&quot;white-space: pre;&quot;&gt;&#x9;&lt;/span&gt;/data/cluster/certificates&lt;span style=&quot;white-space: pre;&quot;&gt;&#x9;&lt;/span&gt;&lt;/span&gt;&lt;span style=&quot;background-color: initial;&quot;&gt;/data/cluster/data/logs&lt;/span&gt;&lt;/div&gt;&lt;/div&gt;&lt;div&gt;&lt;div&gt;&lt;span style=&quot;background-color: initial;&quot;&gt;&lt;span style=&quot;white-space: pre;&quot;&gt;&#x9;&lt;/span&gt;/data/cluster/credentials&lt;span style=&quot;white-space: pre;&quot;&gt;&#x9;&lt;/span&gt;&lt;/span&gt;&lt;span style=&quot;background-color: initial;&quot;&gt;/data/cluster/logs&lt;/span&gt;&lt;/div&gt;&lt;/div&gt;&lt;div&gt;&lt;span style=&quot;background-color: initial;&quot;&gt;&lt;br&gt;&lt;/span&gt;&lt;/div&gt;&lt;div&gt;&lt;div&gt;&lt;br&gt;&lt;/div&gt;&lt;/div&gt;&lt;div&gt;&lt;span style=&quot;background-color: initial;&quot;&gt;&lt;br&gt;&lt;/span&gt;&lt;/div&gt;" style="rounded=0;whiteSpace=wrap;html=1;fillColor=#fff2cc;strokeColor=#d6b656;glass=1;shadow=1;align=left;verticalAlign=top;spacingLeft=5;spacingBottom=5;spacing=0;" parent="1" vertex="1">
          <mxGeometry x="-1942.42" y="857.72" width="311.61" height="110" as="geometry" />
        </mxCell>
        <mxCell id="F-F-gPhgKNkpaGTW-qkE-33" value="&lt;b&gt;System&lt;/b&gt;&lt;div&gt;&lt;b&gt;50 GB&lt;/b&gt;&lt;/div&gt;" style="rounded=0;whiteSpace=wrap;html=1;fillColor=#0050ef;fontColor=#ffffff;strokeColor=#001DBC;shadow=1;" parent="1" vertex="1">
          <mxGeometry x="-1952.42" y="1007.72" width="51.61" height="30" as="geometry" />
        </mxCell>
        <mxCell id="F-F-gPhgKNkpaGTW-qkE-34" value="&lt;b&gt;Data - SSD&lt;/b&gt;&lt;div&gt;&lt;b&gt;500 GB&lt;/b&gt;&lt;/div&gt;" style="rounded=0;whiteSpace=wrap;html=1;fillColor=#0050ef;fontColor=#ffffff;strokeColor=#001DBC;shadow=1;" parent="1" vertex="1">
          <mxGeometry x="-1890.81" y="1007.72" width="270" height="30" as="geometry" />
        </mxCell>
        <mxCell id="F-F-gPhgKNkpaGTW-qkE-35" value="&lt;b&gt;vm:&lt;span style=&quot;white-space: pre;&quot;&gt;&#x9;&lt;/span&gt;&lt;span style=&quot;white-space: pre;&quot;&gt;&#x9;&lt;/span&gt;kafka-node-4&lt;span style=&quot;white-space: pre;&quot;&gt;&#x9;&lt;span style=&quot;white-space: pre;&quot;&gt;&#x9;&lt;/span&gt;&lt;span style=&quot;white-space: pre;&quot;&gt;&#x9;&lt;/span&gt;cpu:&lt;span style=&quot;white-space: pre;&quot;&gt;&#x9;&lt;/span&gt;4&lt;/span&gt;&lt;/b&gt;&lt;div&gt;&lt;b&gt;ip:&lt;span style=&quot;white-space: pre;&quot;&gt;&#x9;&lt;/span&gt;&lt;span style=&quot;white-space: pre;&quot;&gt;&#x9;&lt;/span&gt;10.1.12.1&lt;span style=&quot;white-space: pre;&quot;&gt;&#x9;&lt;/span&gt;&lt;span style=&quot;white-space: pre;&quot;&gt;&#x9;&lt;/span&gt;&lt;span style=&quot;white-space: pre;&quot;&gt;&#x9;&lt;/span&gt;&lt;span style=&quot;white-space: pre;&quot;&gt;&#x9;&lt;/span&gt;ram:&lt;span style=&quot;white-space: pre;&quot;&gt;&#x9;&lt;/span&gt;8&lt;/b&gt;&lt;/div&gt;" style="rounded=0;whiteSpace=wrap;html=1;align=left;glass=0;shadow=1;fillColor=#d5e8d4;strokeColor=#82b366;labelPosition=center;verticalLabelPosition=middle;verticalAlign=top;spacingTop=0;spacingLeft=5;spacingBottom=5;" parent="1" vertex="1">
          <mxGeometry x="-2330" y="807.72" width="350" height="240" as="geometry" />
        </mxCell>
        <mxCell id="F-F-gPhgKNkpaGTW-qkE-36" value="&lt;div style=&quot;&quot;&gt;&lt;span style=&quot;background-color: initial;&quot;&gt;docker engine&lt;/span&gt;&lt;/div&gt;" style="rounded=0;whiteSpace=wrap;html=1;verticalAlign=bottom;align=left;spacingLeft=5;fillColor=#dae8fc;strokeColor=#6c8ebf;glass=1;shadow=1;spacingBottom=5;" parent="1" vertex="1">
          <mxGeometry x="-2321.6099999999997" y="847.72" width="331.61" height="150" as="geometry" />
        </mxCell>
        <mxCell id="F-F-gPhgKNkpaGTW-qkE-37" value="&lt;div&gt;image:&lt;span style=&quot;white-space: pre;&quot;&gt;&#x9;&lt;/span&gt;&lt;span style=&quot;white-space: pre;&quot;&gt;&#x9;&lt;/span&gt;&lt;span style=&quot;background-color: initial;&quot;&gt;apache/kafka:3.9.0&lt;/span&gt;&lt;/div&gt;&lt;div&gt;&lt;span style=&quot;background-color: initial;&quot;&gt;&lt;br&gt;&lt;/span&gt;&lt;/div&gt;&lt;div&gt;&lt;span style=&quot;background-color: initial;&quot;&gt;binds:&lt;/span&gt;&lt;br&gt;&lt;/div&gt;&lt;div&gt;&lt;div&gt;&lt;div&gt;&lt;span style=&quot;background-color: initial;&quot;&gt;&lt;span style=&quot;white-space: pre;&quot;&gt;&#x9;&lt;/span&gt;/data/cluster/config&lt;/span&gt;&lt;span style=&quot;background-color: initial; white-space: pre;&quot;&gt;&#x9;&lt;span style=&quot;white-space: pre;&quot;&gt;&#x9;&lt;/span&gt;&lt;/span&gt;&lt;span style=&quot;background-color: initial;&quot;&gt;/data/cluster/data/meta&lt;/span&gt;&lt;span style=&quot;background-color: initial;&quot;&gt;&lt;br&gt;&lt;/span&gt;&lt;/div&gt;&lt;/div&gt;&lt;/div&gt;&lt;div&gt;&lt;div&gt;&lt;span style=&quot;background-color: initial;&quot;&gt;&lt;span style=&quot;white-space: pre;&quot;&gt;&#x9;&lt;/span&gt;/data/cluster/certificates&lt;span style=&quot;white-space: pre;&quot;&gt;&#x9;&lt;/span&gt;&lt;/span&gt;&lt;span style=&quot;background-color: initial;&quot;&gt;/data/cluster/data/logs&lt;/span&gt;&lt;/div&gt;&lt;/div&gt;&lt;div&gt;&lt;div&gt;&lt;span style=&quot;background-color: initial;&quot;&gt;&lt;span style=&quot;white-space: pre;&quot;&gt;&#x9;&lt;/span&gt;/data/cluster/credentials&lt;span style=&quot;white-space: pre;&quot;&gt;&#x9;&lt;/span&gt;&lt;/span&gt;&lt;span style=&quot;background-color: initial;&quot;&gt;/data/cluster/logs&lt;/span&gt;&lt;/div&gt;&lt;/div&gt;&lt;div&gt;&lt;span style=&quot;background-color: initial;&quot;&gt;&lt;br&gt;&lt;/span&gt;&lt;/div&gt;&lt;div&gt;&lt;div&gt;&lt;br&gt;&lt;/div&gt;&lt;/div&gt;&lt;div&gt;&lt;span style=&quot;background-color: initial;&quot;&gt;&lt;br&gt;&lt;/span&gt;&lt;/div&gt;" style="rounded=0;whiteSpace=wrap;html=1;fillColor=#fff2cc;strokeColor=#d6b656;glass=1;shadow=1;align=left;verticalAlign=top;spacingLeft=5;spacingBottom=5;spacing=0;" parent="1" vertex="1">
          <mxGeometry x="-2311.6099999999997" y="857.72" width="311.61" height="110" as="geometry" />
        </mxCell>
        <mxCell id="F-F-gPhgKNkpaGTW-qkE-38" value="&lt;b&gt;System&lt;/b&gt;&lt;div&gt;&lt;b&gt;50 GB&lt;/b&gt;&lt;/div&gt;" style="rounded=0;whiteSpace=wrap;html=1;fillColor=#0050ef;fontColor=#ffffff;strokeColor=#001DBC;shadow=1;" parent="1" vertex="1">
          <mxGeometry x="-2321.61" y="1007.72" width="51.61" height="30" as="geometry" />
        </mxCell>
        <mxCell id="F-F-gPhgKNkpaGTW-qkE-39" value="&lt;b&gt;Data - SSD&lt;/b&gt;&lt;div&gt;&lt;b&gt;500 GB&lt;/b&gt;&lt;/div&gt;" style="rounded=0;whiteSpace=wrap;html=1;fillColor=#0050ef;fontColor=#ffffff;strokeColor=#001DBC;shadow=1;" parent="1" vertex="1">
          <mxGeometry x="-2260" y="1007.72" width="270" height="30" as="geometry" />
        </mxCell>
        <mxCell id="F-F-gPhgKNkpaGTW-qkE-40" value="&lt;b&gt;vm:&lt;span style=&quot;white-space: pre;&quot;&gt;&#x9;&lt;/span&gt;&lt;span style=&quot;white-space: pre;&quot;&gt;&#x9;&lt;/span&gt;kafka-node-6&lt;span style=&quot;white-space: pre;&quot;&gt;&#x9;&lt;span style=&quot;white-space: pre;&quot;&gt;&#x9;&lt;/span&gt;&lt;span style=&quot;white-space: pre;&quot;&gt;&#x9;&lt;/span&gt;cpu:&lt;span style=&quot;white-space: pre;&quot;&gt;&#x9;&lt;/span&gt;4&lt;/span&gt;&lt;/b&gt;&lt;div&gt;&lt;b&gt;ip:&lt;span style=&quot;white-space: pre;&quot;&gt;&#x9;&lt;/span&gt;&lt;span style=&quot;white-space: pre;&quot;&gt;&#x9;&lt;/span&gt;10.1.12.3&lt;span style=&quot;white-space: pre;&quot;&gt;&#x9;&lt;/span&gt;&lt;span style=&quot;white-space: pre;&quot;&gt;&#x9;&lt;/span&gt;&lt;span style=&quot;white-space: pre;&quot;&gt;&#x9;&lt;/span&gt;&lt;span style=&quot;white-space: pre;&quot;&gt;&#x9;&lt;/span&gt;ram:&lt;span style=&quot;white-space: pre;&quot;&gt;&#x9;&lt;/span&gt;8&lt;/b&gt;&lt;/div&gt;" style="rounded=0;whiteSpace=wrap;html=1;align=left;glass=0;shadow=1;fillColor=#d5e8d4;strokeColor=#82b366;labelPosition=center;verticalLabelPosition=middle;verticalAlign=top;spacingTop=0;spacingLeft=5;spacingBottom=5;" parent="1" vertex="1">
          <mxGeometry x="-1590" y="807.72" width="350" height="240" as="geometry" />
        </mxCell>
        <mxCell id="F-F-gPhgKNkpaGTW-qkE-41" value="&lt;div style=&quot;&quot;&gt;&lt;span style=&quot;background-color: initial;&quot;&gt;docker engine&lt;/span&gt;&lt;/div&gt;" style="rounded=0;whiteSpace=wrap;html=1;verticalAlign=bottom;align=left;spacingLeft=5;fillColor=#dae8fc;strokeColor=#6c8ebf;glass=1;shadow=1;spacingBottom=5;" parent="1" vertex="1">
          <mxGeometry x="-1581.6100000000001" y="847.72" width="331.61" height="150" as="geometry" />
        </mxCell>
        <mxCell id="F-F-gPhgKNkpaGTW-qkE-42" value="&lt;div&gt;image:&lt;span style=&quot;white-space: pre;&quot;&gt;&#x9;&lt;/span&gt;&lt;span style=&quot;white-space: pre;&quot;&gt;&#x9;&lt;/span&gt;&lt;span style=&quot;background-color: initial;&quot;&gt;apache/kafka:3.9.0&lt;/span&gt;&lt;/div&gt;&lt;div&gt;&lt;br&gt;&lt;/div&gt;&lt;div&gt;&lt;span style=&quot;background-color: initial;&quot;&gt;binds:&lt;/span&gt;&lt;/div&gt;&lt;div&gt;&lt;div&gt;&lt;div&gt;&lt;span style=&quot;background-color: initial;&quot;&gt;&lt;span style=&quot;white-space: pre;&quot;&gt;&#x9;&lt;/span&gt;/data/cluster/config&lt;/span&gt;&lt;span style=&quot;background-color: initial; white-space: pre;&quot;&gt;&#x9;&lt;span style=&quot;white-space: pre;&quot;&gt;&#x9;&lt;/span&gt;&lt;/span&gt;&lt;span style=&quot;background-color: initial;&quot;&gt;/data/cluster/data/meta&lt;/span&gt;&lt;span style=&quot;background-color: initial;&quot;&gt;&lt;br&gt;&lt;/span&gt;&lt;/div&gt;&lt;/div&gt;&lt;/div&gt;&lt;div&gt;&lt;div&gt;&lt;span style=&quot;background-color: initial;&quot;&gt;&lt;span style=&quot;white-space: pre;&quot;&gt;&#x9;&lt;/span&gt;/data/cluster/certificates&lt;span style=&quot;white-space: pre;&quot;&gt;&#x9;&lt;/span&gt;&lt;/span&gt;&lt;span style=&quot;background-color: initial;&quot;&gt;/data/cluster/data/logs&lt;/span&gt;&lt;/div&gt;&lt;/div&gt;&lt;div&gt;&lt;div&gt;&lt;span style=&quot;background-color: initial;&quot;&gt;&lt;span style=&quot;white-space: pre;&quot;&gt;&#x9;&lt;/span&gt;/data/cluster/credentials&lt;span style=&quot;white-space: pre;&quot;&gt;&#x9;&lt;/span&gt;&lt;/span&gt;&lt;span style=&quot;background-color: initial;&quot;&gt;/data/cluster/logs&lt;/span&gt;&lt;/div&gt;&lt;/div&gt;&lt;div&gt;&lt;span style=&quot;background-color: initial;&quot;&gt;&lt;br&gt;&lt;/span&gt;&lt;/div&gt;&lt;div&gt;&lt;div&gt;&lt;br&gt;&lt;/div&gt;&lt;/div&gt;&lt;div&gt;&lt;span style=&quot;background-color: initial;&quot;&gt;&lt;br&gt;&lt;/span&gt;&lt;/div&gt;" style="rounded=0;whiteSpace=wrap;html=1;fillColor=#fff2cc;strokeColor=#d6b656;glass=1;shadow=1;align=left;verticalAlign=top;spacingLeft=5;spacingBottom=5;spacing=0;" parent="1" vertex="1">
          <mxGeometry x="-1571.6100000000001" y="857.72" width="311.61" height="110" as="geometry" />
        </mxCell>
        <mxCell id="F-F-gPhgKNkpaGTW-qkE-43" value="&lt;b&gt;System&lt;/b&gt;&lt;div&gt;&lt;b&gt;50 GB&lt;/b&gt;&lt;/div&gt;" style="rounded=0;whiteSpace=wrap;html=1;fillColor=#0050ef;fontColor=#ffffff;strokeColor=#001DBC;shadow=1;" parent="1" vertex="1">
          <mxGeometry x="-1581.6100000000001" y="1007.72" width="51.61" height="30" as="geometry" />
        </mxCell>
        <mxCell id="F-F-gPhgKNkpaGTW-qkE-44" value="&lt;b&gt;Data - SSD&lt;/b&gt;&lt;div&gt;&lt;b&gt;500 GB&lt;/b&gt;&lt;/div&gt;" style="rounded=0;whiteSpace=wrap;html=1;fillColor=#0050ef;fontColor=#ffffff;strokeColor=#001DBC;shadow=1;" parent="1" vertex="1">
          <mxGeometry x="-1520" y="1007.72" width="270" height="30" as="geometry" />
        </mxCell>
        <mxCell id="F-F-gPhgKNkpaGTW-qkE-45" value="&lt;b&gt;vm:&lt;span style=&quot;white-space: pre;&quot;&gt;&#x9;&lt;/span&gt;&lt;span style=&quot;white-space: pre;&quot;&gt;&#x9;&lt;/span&gt;kafka-node-8&lt;span style=&quot;white-space: pre;&quot;&gt;&#x9;&lt;span style=&quot;white-space: pre;&quot;&gt;&#x9;&lt;/span&gt;&lt;span style=&quot;white-space: pre;&quot;&gt;&#x9;&lt;/span&gt;cpu:&lt;span style=&quot;white-space: pre;&quot;&gt;&#x9;&lt;/span&gt;4&lt;/span&gt;&lt;/b&gt;&lt;div&gt;&lt;b&gt;ip:&lt;span style=&quot;white-space: pre;&quot;&gt;&#x9;&lt;/span&gt;&lt;span style=&quot;white-space: pre;&quot;&gt;&#x9;&lt;/span&gt;10.1.13.2&lt;span style=&quot;white-space: pre;&quot;&gt;&#x9;&lt;/span&gt;&lt;span style=&quot;white-space: pre;&quot;&gt;&#x9;&lt;/span&gt;&lt;span style=&quot;white-space: pre;&quot;&gt;&#x9;&lt;/span&gt;&lt;span style=&quot;white-space: pre;&quot;&gt;&#x9;&lt;/span&gt;ram:&lt;span style=&quot;white-space: pre;&quot;&gt;&#x9;&lt;/span&gt;8&lt;/b&gt;&lt;/div&gt;" style="rounded=0;whiteSpace=wrap;html=1;align=left;glass=0;shadow=1;fillColor=#d5e8d4;strokeColor=#82b366;labelPosition=center;verticalLabelPosition=middle;verticalAlign=top;spacingTop=0;spacingLeft=5;spacingBottom=5;" parent="1" vertex="1">
          <mxGeometry x="-1960.8100000000002" y="1137.72" width="350" height="240" as="geometry" />
        </mxCell>
        <mxCell id="F-F-gPhgKNkpaGTW-qkE-46" value="&lt;div style=&quot;&quot;&gt;&lt;span style=&quot;background-color: initial;&quot;&gt;docker engine&lt;/span&gt;&lt;/div&gt;" style="rounded=0;whiteSpace=wrap;html=1;verticalAlign=bottom;align=left;spacingLeft=5;fillColor=#dae8fc;strokeColor=#6c8ebf;glass=1;shadow=1;spacingBottom=5;" parent="1" vertex="1">
          <mxGeometry x="-1952.42" y="1177.72" width="331.61" height="150" as="geometry" />
        </mxCell>
        <mxCell id="F-F-gPhgKNkpaGTW-qkE-47" value="&lt;div&gt;image:&lt;span style=&quot;white-space: pre;&quot;&gt;&#x9;&lt;/span&gt;&lt;span style=&quot;white-space: pre;&quot;&gt;&#x9;&lt;/span&gt;&lt;span style=&quot;background-color: initial;&quot;&gt;apache/kafka:3.9.0&lt;/span&gt;&lt;/div&gt;&lt;div&gt;&lt;br&gt;&lt;/div&gt;&lt;div&gt;&lt;span style=&quot;background-color: initial;&quot;&gt;binds:&lt;/span&gt;&lt;/div&gt;&lt;div&gt;&lt;div&gt;&lt;div&gt;&lt;span style=&quot;background-color: initial;&quot;&gt;&lt;span style=&quot;white-space: pre;&quot;&gt;&#x9;&lt;/span&gt;/data/cluster/config&lt;/span&gt;&lt;span style=&quot;background-color: initial; white-space: pre;&quot;&gt;&#x9;&lt;span style=&quot;white-space: pre;&quot;&gt;&#x9;&lt;/span&gt;&lt;/span&gt;&lt;span style=&quot;background-color: initial;&quot;&gt;/data/cluster/data/meta&lt;/span&gt;&lt;span style=&quot;background-color: initial;&quot;&gt;&lt;br&gt;&lt;/span&gt;&lt;/div&gt;&lt;/div&gt;&lt;/div&gt;&lt;div&gt;&lt;div&gt;&lt;span style=&quot;background-color: initial;&quot;&gt;&lt;span style=&quot;white-space: pre;&quot;&gt;&#x9;&lt;/span&gt;/data/cluster/certificates&lt;span style=&quot;white-space: pre;&quot;&gt;&#x9;&lt;/span&gt;&lt;/span&gt;&lt;span style=&quot;background-color: initial;&quot;&gt;/data/cluster/data/logs&lt;/span&gt;&lt;/div&gt;&lt;/div&gt;&lt;div&gt;&lt;div&gt;&lt;span style=&quot;background-color: initial;&quot;&gt;&lt;span style=&quot;white-space: pre;&quot;&gt;&#x9;&lt;/span&gt;/data/cluster/credentials&lt;span style=&quot;white-space: pre;&quot;&gt;&#x9;&lt;/span&gt;&lt;/span&gt;&lt;span style=&quot;background-color: initial;&quot;&gt;/data/cluster/logs&lt;/span&gt;&lt;/div&gt;&lt;/div&gt;&lt;div&gt;&lt;span style=&quot;background-color: initial;&quot;&gt;&lt;br&gt;&lt;/span&gt;&lt;/div&gt;&lt;div&gt;&lt;div&gt;&lt;br&gt;&lt;/div&gt;&lt;/div&gt;&lt;div&gt;&lt;span style=&quot;background-color: initial;&quot;&gt;&lt;br&gt;&lt;/span&gt;&lt;/div&gt;" style="rounded=0;whiteSpace=wrap;html=1;fillColor=#fff2cc;strokeColor=#d6b656;glass=1;shadow=1;align=left;verticalAlign=top;spacingLeft=5;spacingBottom=5;spacing=0;" parent="1" vertex="1">
          <mxGeometry x="-1942.42" y="1187.72" width="311.61" height="110" as="geometry" />
        </mxCell>
        <mxCell id="F-F-gPhgKNkpaGTW-qkE-48" value="&lt;b&gt;System&lt;/b&gt;&lt;div&gt;&lt;b&gt;50 GB&lt;/b&gt;&lt;/div&gt;" style="rounded=0;whiteSpace=wrap;html=1;fillColor=#0050ef;fontColor=#ffffff;strokeColor=#001DBC;shadow=1;" parent="1" vertex="1">
          <mxGeometry x="-1952.42" y="1337.72" width="51.61" height="30" as="geometry" />
        </mxCell>
        <mxCell id="F-F-gPhgKNkpaGTW-qkE-49" value="&lt;b&gt;Data - SSD&lt;/b&gt;&lt;div&gt;&lt;b&gt;500 GB&lt;/b&gt;&lt;/div&gt;" style="rounded=0;whiteSpace=wrap;html=1;fillColor=#0050ef;fontColor=#ffffff;strokeColor=#001DBC;shadow=1;" parent="1" vertex="1">
          <mxGeometry x="-1890.8100000000002" y="1337.72" width="270" height="30" as="geometry" />
        </mxCell>
        <mxCell id="F-F-gPhgKNkpaGTW-qkE-50" value="&lt;b&gt;vm:&lt;span style=&quot;white-space: pre;&quot;&gt;&#x9;&lt;/span&gt;&lt;span style=&quot;white-space: pre;&quot;&gt;&#x9;&lt;/span&gt;kafka-node-7&lt;span style=&quot;white-space: pre;&quot;&gt;&#x9;&lt;span style=&quot;white-space: pre;&quot;&gt;&#x9;&lt;/span&gt;&lt;span style=&quot;white-space: pre;&quot;&gt;&#x9;&lt;/span&gt;cpu:&lt;span style=&quot;white-space: pre;&quot;&gt;&#x9;&lt;/span&gt;4&lt;/span&gt;&lt;/b&gt;&lt;div&gt;&lt;b&gt;ip:&lt;span style=&quot;white-space: pre;&quot;&gt;&#x9;&lt;/span&gt;&lt;span style=&quot;white-space: pre;&quot;&gt;&#x9;&lt;/span&gt;10.1.13.1&lt;span style=&quot;white-space: pre;&quot;&gt;&#x9;&lt;/span&gt;&lt;span style=&quot;white-space: pre;&quot;&gt;&#x9;&lt;/span&gt;&lt;span style=&quot;white-space: pre;&quot;&gt;&#x9;&lt;/span&gt;&lt;span style=&quot;white-space: pre;&quot;&gt;&#x9;&lt;/span&gt;ram:&lt;span style=&quot;white-space: pre;&quot;&gt;&#x9;&lt;/span&gt;8&lt;/b&gt;&lt;/div&gt;" style="rounded=0;whiteSpace=wrap;html=1;align=left;glass=0;shadow=1;fillColor=#d5e8d4;strokeColor=#82b366;labelPosition=center;verticalLabelPosition=middle;verticalAlign=top;spacingTop=0;spacingLeft=5;spacingBottom=5;" parent="1" vertex="1">
          <mxGeometry x="-2329.9999999999995" y="1137.72" width="350" height="240" as="geometry" />
        </mxCell>
        <mxCell id="F-F-gPhgKNkpaGTW-qkE-51" value="&lt;div style=&quot;&quot;&gt;&lt;span style=&quot;background-color: initial;&quot;&gt;docker engine&lt;/span&gt;&lt;/div&gt;" style="rounded=0;whiteSpace=wrap;html=1;verticalAlign=bottom;align=left;spacingLeft=5;fillColor=#dae8fc;strokeColor=#6c8ebf;glass=1;shadow=1;spacingBottom=5;" parent="1" vertex="1">
          <mxGeometry x="-2321.6099999999997" y="1177.72" width="331.61" height="150" as="geometry" />
        </mxCell>
        <mxCell id="F-F-gPhgKNkpaGTW-qkE-52" value="&lt;div&gt;image:&lt;span style=&quot;white-space: pre;&quot;&gt;&#x9;&lt;/span&gt;&lt;span style=&quot;white-space: pre;&quot;&gt;&#x9;&lt;/span&gt;&lt;span style=&quot;background-color: initial;&quot;&gt;apache/kafka:3.9.0&lt;/span&gt;&lt;/div&gt;&lt;div&gt;&lt;span style=&quot;background-color: initial;&quot;&gt;&lt;br&gt;&lt;/span&gt;&lt;/div&gt;&lt;div&gt;&lt;span style=&quot;background-color: initial;&quot;&gt;binds:&lt;/span&gt;&lt;br&gt;&lt;/div&gt;&lt;div&gt;&lt;div&gt;&lt;div&gt;&lt;span style=&quot;background-color: initial;&quot;&gt;&lt;span style=&quot;white-space: pre;&quot;&gt;&#x9;&lt;/span&gt;/data/cluster/config&lt;/span&gt;&lt;span style=&quot;background-color: initial; white-space: pre;&quot;&gt;&#x9;&lt;span style=&quot;white-space: pre;&quot;&gt;&#x9;&lt;/span&gt;&lt;/span&gt;&lt;span style=&quot;background-color: initial;&quot;&gt;/data/cluster/data/meta&lt;/span&gt;&lt;span style=&quot;background-color: initial;&quot;&gt;&lt;br&gt;&lt;/span&gt;&lt;/div&gt;&lt;/div&gt;&lt;/div&gt;&lt;div&gt;&lt;div&gt;&lt;span style=&quot;background-color: initial;&quot;&gt;&lt;span style=&quot;white-space: pre;&quot;&gt;&#x9;&lt;/span&gt;/data/cluster/certificates&lt;span style=&quot;white-space: pre;&quot;&gt;&#x9;&lt;/span&gt;&lt;/span&gt;&lt;span style=&quot;background-color: initial;&quot;&gt;/data/cluster/data/logs&lt;/span&gt;&lt;/div&gt;&lt;/div&gt;&lt;div&gt;&lt;div&gt;&lt;span style=&quot;background-color: initial;&quot;&gt;&lt;span style=&quot;white-space: pre;&quot;&gt;&#x9;&lt;/span&gt;/data/cluster/credentials&lt;span style=&quot;white-space: pre;&quot;&gt;&#x9;&lt;/span&gt;&lt;/span&gt;&lt;span style=&quot;background-color: initial;&quot;&gt;/data/cluster/logs&lt;/span&gt;&lt;/div&gt;&lt;/div&gt;&lt;div&gt;&lt;span style=&quot;background-color: initial;&quot;&gt;&lt;br&gt;&lt;/span&gt;&lt;/div&gt;&lt;div&gt;&lt;div&gt;&lt;br&gt;&lt;/div&gt;&lt;/div&gt;&lt;div&gt;&lt;span style=&quot;background-color: initial;&quot;&gt;&lt;br&gt;&lt;/span&gt;&lt;/div&gt;" style="rounded=0;whiteSpace=wrap;html=1;fillColor=#fff2cc;strokeColor=#d6b656;glass=1;shadow=1;align=left;verticalAlign=top;spacingLeft=5;spacingBottom=5;spacing=0;" parent="1" vertex="1">
          <mxGeometry x="-2311.6099999999997" y="1187.72" width="311.61" height="110" as="geometry" />
        </mxCell>
        <mxCell id="F-F-gPhgKNkpaGTW-qkE-53" value="&lt;b&gt;System&lt;/b&gt;&lt;div&gt;&lt;b&gt;50 GB&lt;/b&gt;&lt;/div&gt;" style="rounded=0;whiteSpace=wrap;html=1;fillColor=#0050ef;fontColor=#ffffff;strokeColor=#001DBC;shadow=1;" parent="1" vertex="1">
          <mxGeometry x="-2321.61" y="1337.72" width="51.61" height="30" as="geometry" />
        </mxCell>
        <mxCell id="F-F-gPhgKNkpaGTW-qkE-54" value="&lt;b&gt;Data - SSD&lt;/b&gt;&lt;div&gt;&lt;b&gt;500 GB&lt;/b&gt;&lt;/div&gt;" style="rounded=0;whiteSpace=wrap;html=1;fillColor=#0050ef;fontColor=#ffffff;strokeColor=#001DBC;shadow=1;" parent="1" vertex="1">
          <mxGeometry x="-2259.9999999999995" y="1337.72" width="270" height="30" as="geometry" />
        </mxCell>
        <mxCell id="F-F-gPhgKNkpaGTW-qkE-55" value="&lt;b&gt;vm:&lt;span style=&quot;white-space: pre;&quot;&gt;&#x9;&lt;/span&gt;&lt;span style=&quot;white-space: pre;&quot;&gt;&#x9;&lt;/span&gt;kafka-node-9&lt;span style=&quot;white-space: pre;&quot;&gt;&#x9;&lt;/span&gt;&lt;span style=&quot;white-space: pre;&quot;&gt;&#x9;&lt;/span&gt;&lt;span style=&quot;white-space: pre;&quot;&gt;&#x9;&lt;/span&gt;cpu:&lt;span style=&quot;white-space: pre;&quot;&gt;&#x9;&lt;/span&gt;4&lt;/b&gt;&lt;div&gt;&lt;b&gt;ip:&lt;span style=&quot;white-space: pre;&quot;&gt;&#x9;&lt;/span&gt;&lt;span style=&quot;white-space: pre;&quot;&gt;&#x9;&lt;/span&gt;10.1.13.3&lt;span style=&quot;white-space: pre;&quot;&gt;&#x9;&lt;/span&gt;&lt;span style=&quot;white-space: pre;&quot;&gt;&#x9;&lt;/span&gt;&lt;span style=&quot;white-space: pre;&quot;&gt;&#x9;&lt;/span&gt;&lt;span style=&quot;white-space: pre;&quot;&gt;&#x9;&lt;/span&gt;ram:&lt;span style=&quot;white-space: pre;&quot;&gt;&#x9;&lt;/span&gt;8&lt;/b&gt;&lt;/div&gt;" style="rounded=0;whiteSpace=wrap;html=1;align=left;glass=0;shadow=1;fillColor=#d5e8d4;strokeColor=#82b366;labelPosition=center;verticalLabelPosition=middle;verticalAlign=top;spacingTop=0;spacingLeft=5;spacingBottom=5;" parent="1" vertex="1">
          <mxGeometry x="-1590.0000000000002" y="1137.72" width="350" height="240" as="geometry" />
        </mxCell>
        <mxCell id="F-F-gPhgKNkpaGTW-qkE-56" value="&lt;div style=&quot;&quot;&gt;&lt;span style=&quot;background-color: initial;&quot;&gt;docker engine&lt;/span&gt;&lt;/div&gt;" style="rounded=0;whiteSpace=wrap;html=1;verticalAlign=bottom;align=left;spacingLeft=5;fillColor=#dae8fc;strokeColor=#6c8ebf;glass=1;shadow=1;spacingBottom=5;" parent="1" vertex="1">
          <mxGeometry x="-1581.6100000000001" y="1177.72" width="331.61" height="150" as="geometry" />
        </mxCell>
        <mxCell id="F-F-gPhgKNkpaGTW-qkE-57" value="&lt;div&gt;image:&lt;span style=&quot;white-space: pre;&quot;&gt;&#x9;&lt;/span&gt;&lt;span style=&quot;white-space: pre;&quot;&gt;&#x9;&lt;/span&gt;&lt;span style=&quot;background-color: initial;&quot;&gt;apache/kafka:3.9.0&lt;/span&gt;&lt;/div&gt;&lt;div&gt;&lt;br&gt;&lt;/div&gt;&lt;div&gt;&lt;span style=&quot;background-color: initial;&quot;&gt;binds:&lt;/span&gt;&lt;/div&gt;&lt;div&gt;&lt;div&gt;&lt;div&gt;&lt;span style=&quot;background-color: initial;&quot;&gt;&lt;span style=&quot;white-space: pre;&quot;&gt;&#x9;&lt;/span&gt;/data/cluster/config&lt;/span&gt;&lt;span style=&quot;background-color: initial; white-space: pre;&quot;&gt;&#x9;&lt;span style=&quot;white-space: pre;&quot;&gt;&#x9;&lt;/span&gt;&lt;/span&gt;&lt;span style=&quot;background-color: initial;&quot;&gt;/data/cluster/data/meta&lt;/span&gt;&lt;span style=&quot;background-color: initial;&quot;&gt;&lt;br&gt;&lt;/span&gt;&lt;/div&gt;&lt;/div&gt;&lt;/div&gt;&lt;div&gt;&lt;div&gt;&lt;span style=&quot;background-color: initial;&quot;&gt;&lt;span style=&quot;white-space: pre;&quot;&gt;&#x9;&lt;/span&gt;/data/cluster/certificates&lt;span style=&quot;white-space: pre;&quot;&gt;&#x9;&lt;/span&gt;&lt;/span&gt;&lt;span style=&quot;background-color: initial;&quot;&gt;/data/cluster/data/logs&lt;/span&gt;&lt;/div&gt;&lt;/div&gt;&lt;div&gt;&lt;div&gt;&lt;span style=&quot;background-color: initial;&quot;&gt;&lt;span style=&quot;white-space: pre;&quot;&gt;&#x9;&lt;/span&gt;/data/cluster/credentials&lt;span style=&quot;white-space: pre;&quot;&gt;&#x9;&lt;/span&gt;&lt;/span&gt;&lt;span style=&quot;background-color: initial;&quot;&gt;/data/cluster/logs&lt;/span&gt;&lt;/div&gt;&lt;/div&gt;&lt;div&gt;&lt;span style=&quot;background-color: initial;&quot;&gt;&lt;br&gt;&lt;/span&gt;&lt;/div&gt;&lt;div&gt;&lt;div&gt;&lt;br&gt;&lt;/div&gt;&lt;/div&gt;&lt;div&gt;&lt;span style=&quot;background-color: initial;&quot;&gt;&lt;br&gt;&lt;/span&gt;&lt;/div&gt;" style="rounded=0;whiteSpace=wrap;html=1;fillColor=#fff2cc;strokeColor=#d6b656;glass=1;shadow=1;align=left;verticalAlign=top;spacingLeft=5;spacingBottom=5;spacing=0;" parent="1" vertex="1">
          <mxGeometry x="-1571.6100000000001" y="1187.72" width="311.61" height="110" as="geometry" />
        </mxCell>
        <mxCell id="F-F-gPhgKNkpaGTW-qkE-58" value="&lt;b&gt;System&lt;/b&gt;&lt;div&gt;&lt;b&gt;50 GB&lt;/b&gt;&lt;/div&gt;" style="rounded=0;whiteSpace=wrap;html=1;fillColor=#0050ef;fontColor=#ffffff;strokeColor=#001DBC;shadow=1;" parent="1" vertex="1">
          <mxGeometry x="-1581.6100000000001" y="1337.72" width="51.61" height="30" as="geometry" />
        </mxCell>
        <mxCell id="F-F-gPhgKNkpaGTW-qkE-59" value="&lt;b&gt;Data - SSD&lt;/b&gt;&lt;div&gt;&lt;b&gt;500 GB&lt;/b&gt;&lt;/div&gt;" style="rounded=0;whiteSpace=wrap;html=1;fillColor=#0050ef;fontColor=#ffffff;strokeColor=#001DBC;shadow=1;" parent="1" vertex="1">
          <mxGeometry x="-1520.0000000000002" y="1337.72" width="270" height="30" as="geometry" />
        </mxCell>
        <mxCell id="JN4oBcEZUjCp0P2fSePL-2" value="ESXi&lt;br&gt;&lt;span style=&quot;font-weight: normal;&quot;&gt;Virtualization Platform&lt;/span&gt;" style="shape=image;verticalLabelPosition=middle;labelBackgroundColor=default;verticalAlign=middle;aspect=fixed;imageAspect=0;image=data:image/png,iVBORw0KGgoAAAANSUhEUgAAAgAAAAIABAMAAAAGVsnJAAAAIVBMVEVtnTycy1Pn5uf6xTf20kl5qEKTwk+Htkrv8IbC3Xfc4r6jHg3jAAAgAElEQVR42uxdS2/cyBGmF6CN9cnUoRP7tjoE0VytXxDp4GNjAYbAntJ7IGGfjAVIArkZMYKRTpYAKzM5DrCBNL8y3fXoBzl6DDFsCli2HiMD9gL18auvqr7q0SbHf/CTzADMAMwAzADMAMwAzADMAMwAzADMAMwAzADMAMwAzADMAMwAzADMAMwAzADMAMwAHPRst+v7T5Zd6Y/s6m2mz1vzI5yr7G2297nS/73t5lkBsDAxrtbL1Wp1wWe1Np/8kmVKf2SlMBGUZam/KyH0D1XpTlVW5jRt1Qanbms4RW6+8jxJZJK3jVpvnwMAG/Pgl8ulDnNtPh9/ggYEpUqNhkZAlMpHoCwb/b1pdsAQ4NFqMHKZFuq/EwOwvV2vlsv1mjmdlQ8Hr/SBb0LHrwwEwg+/MiQoG/3ZaghCDHTcbQEHX3NkQ/FxOx0Ai6WO/kI/dCHEk1PY/F0DgTIIePE3CIEOH4+Ovmk1Dh4CBb7aAzjIVx83EwGw0NS/uBLl04M3T99AAAiUPQY09PhBCRpEIIi+8I5hQJ2bI/9+PQkAJzr+q1I9Xb4FfGICKCSBOcLTQRM+nBYZ0ATZX2Ae1K0DwZw8T99NAMDd6mIt1H4VTMHTN1kgDP9LTAPv+VcWgpZzwBMAjYCRADq5YYDhgPn6FB2Ak9XFXo+f4ofyZ2RAh25koPQfPxSABiuh+Ww6+l+Yp0/Zn2NdNK+QBp8iA6Djz9TePYzRABIA0Y1eK6AOviQJ5ArABDC8h/IHX6AAWAcKooB8FxUArX97xy+gGRLmVWAJ7FCgohaA4jdpUIUCgDlAWZAjCjlJYXodE4D18ibbO/4MHj6XQZf+Vv2wAJSkAFXQApgSYMI2HLAM0B8AAZwXm3gAnKyu9uc/SoAQJIFhFwB9AMJgpA/13++DtASaSlhzCcgRBwgfMZC/RANgsboQAwhARcA2QipUwKZhGkAn7PeB0AU4/afiV5vQCQM4m1gA3F3cDCAAhg7Pn+lvGdA09IIlsKX4K44fNAAUgOeiHBpBL3pNgR8jAbBYXQ2Jntpg0gFqgzwIGhYBVEF/CqDy58WPIJj4QQJRB5PrOADc7Z8AdhDKjPwLqoHKr4GQBNgDgwJ02oC69QQAS2CBAlgXj1Hg0AAMUkDhD4M4CfoaQHMg9oBV0APTw0cGFM4YqIEBde4nwSYGACdDCKAgfNaAHS1gyTWw5Y+q4wIEQwDUwcJXgAcKwYEBWF8MUUAhiAHKeCDCJEKAAEwBVdlSIWzCClhgG1jYOZiIX+SuE9Lx568iALBY3Qzgv8IOAJrA7hDQQBUwCNAUhPE3tgW0DQCZAKYDwjoQPP9UQ3A0PgAnF9kwCTQgKNcHdXsgGAaxCzYa0LgWGI2A1rVAmAQFyb+nAjL/cXwA1l8G9QAZP3zTANEoXPo1sKp2VMCWo4c+CDmALbDphIoiDxsBzYLN2AAMywBfAc3zZzOktMawp4HsiLH2IQbOBcMk2CGB+T05kBw2A9SwBMgy1wf2JuGAAl31N/LPNYD7IIreUwEJMpC+HhuAu0EZwAWAWsCOGQz6T2OgSf+gCNYogSSCVgHzotMDEAYvxwZgQAZA3JAEYhcDKmSBKYEogK4A4BTQWjessE5I4Y2BXAQkVILNuAAsVoPaYAyffADhr0NgG1CxI0xmmJcBNVYAbAVr64NZ9hedQpj8Oi4AAyRAgRHCCqA6NgDtg6D/sfFXnTawwOfvI4B2WCgBqfn+y7gA3H0ZMgZwAmS8DlFeBSzJBUIMvCmYzGD99Fu/AbT7gLojACZ+KV+MC8DtsCKITSBbwV0GNKyAFbsAldOAGvchLSeBJUDd1T96GReA1aAWSHEZoAJgZ2GYAEz4pZ0CK7cQqj0vNOcu2MSO3A8xSCX0wnLHRJgcUgOHSaBdCKq+BuhHb5ahJXZAgRWICBRuFMYZAOLvqh+2AekuFUwOqYFDxkDFTQAQQHlGUFPROqRkK6zrhBctsd+ZoYhAVwEkCaH8eVQA9m6DlP1UaqcZTBUQnRAgANfBAp8/TgFuIWRb4K4IUCF4PS4AAzWgxA7IhK8CK9hbiHa2AXYSbIONsGF/wX5QEaSBUYE0fzEmAHvbocpCoNw6wGuC2Qmh+acCAvi7QGiBwjJY96sgCqB5kTIdFYCbATMAsF8JuxMWKjRDTBPMNwKq3uNvC88Npl1oXfQ1EDphaAY2zwoAaoTo+YMX1usAoALwRrzxqmBBAuCGYCOBYAXsmIN0DTQI9M3xwwGwWO8/B9mFsCh76yDUf5gFKAOq3kbc3ojIcSNa8BRchwmQphKzQP46HgBD7DDFKyGjhGVnIVqyGd7ynYjKrYNM7au7XnC90wukOcCAIPt18JAAqL25zwwo0Q0OGVDRNrDsRM81kK6GhRrYGwLRDDMZYEQw/+HZAECjINrBaIT7CFQVlQIgQD8DsAsuwnUQXgsIi0Aq7Tyo40/HBGDPPkjQxTBFc6DqTMHoAsIoCOWvclZQUdOVSNcC5jXfCuppIJEfGoG+K3Y4APYbhnEjrjJ3MRCtYGEJ0JTWDG96GVDUOAyGNbDO+4NgipMwMkD2N4RTAQArYcX071wJsbMgN4GdLqC2l2J9AfDrf+H1AHYUMjPhy/EAWA9oA8AIoTsBnhsORqi7FMTxN4EbVnsSWHMjXHclAFkgJc3E6avxANjLDqH7gBmNgaLTA5SeGY5DYGXb4Jqc8LZ1t0KsBO40Q6EFNBpgEBgPgP0aQcFZYDrhXgY0uBRmO7gzBrERWNcdNzjf0QVTGUhRAqQcEQCxbxcA8YMVqqVPKXsroqILEcABRKBzMRofP5TBmj0AZkCIQEriB4/f9MKbsQDYyxNXtguANoiuBqtdo3DLXkDlrwNoGeDvw+ocrZAuB1JrihkcngkAfClM2SnQj54ZQJdC2sAKK7w2gDUQ6W93AbU/A4EEgB1gXvvT0AEB2HcQYh30LocH9+IatxB3ZiheCOD4C16G1zucUEz/FGYgyYmQHD0DAASbAXYX4FMAq19Zuo14uBSnPQiLIF2KrK0Xkue73IAUG8G0Nw4eDICTtdq3/tuVuAgbYZoB+Fps27Zt72JAEdyLy9kG8xUAvXDD/5xLgD6/jcaA9T4VwO4CkAIqXIWU7mJ4wztRL/CaRmHv3TE7piBbBiRVAUyD354FA5D/uA7rt8EVeeH+24O6twLbYAikEaDuDMGSrQBwg+D0DIHDMeDp07Cgu1Hm6cN3/0oMOgB8LdQtBKvgbRFt4a2E0QfummHS+cFYAUAKk5/HY8A+c7DCjXgG7FcdI9R7a0zVdlbiBa2E+FaYffg7vEAsgGnKCTAuA06evgxiCSh7B3K/6d+Hx+yv3XsgfLLTjYi6ZwNJNIPylHoAUMIfxgLgp6cLAEWrdoijcJNSiUOiKO89Gi6NVI3FrvZaIG8laBnAheD15Awos/V6u90czo3e3t1dVRCvSwNJK8GUDdGUC+HriRlQvj1g7N7Z3nxO8937QOh/qAj0PbG4AIi3o0SP50butIKpBnIO/DglAOLd8Zjn5HP3ToBdi1gGJFMCMHL8GgEZNsI0CtoSaH5+MSEAn47HPj8ldcr8z3EKpLUwrIZHZcBfHm9/N6MDcPz7WxlcDLMSaIehl9Mx4Hr8+PVQ/p8UV8HMAFyK0JmUAe+OY5y7taQmIHVTAC2GoBeYjAHiOgoAi9X3lK1AG79+9NMz4ONxnHN3QesgSVOwREscdkMag1dTAXAUCYCT1WdqAelihNM/maTJeGXwMQA2kQA4Xn8n9oMZRhpAbsiYGvC/55EB5p5CSvHnuXMCYDueSDkZA46iAbBYSfseGV4KgQDKZEIGiGgZoHPgW461P2cfAPmfjtsIPcKAePEf332Xbi8OKeBmoTSdiAH/jAnAjbPCfSsE+4CJGHAUEQCtgjK3K3H9RYMwYvBqGgZcRwRgsaY1gHQNMP2kUZiGATE18Ph49QYbAdwJ2y5o5GnwQQaI46gAYBlAK4iHAfw2mQZEBWD9TdLdWLcSIwlIk2k04GNUAO6+p7I7BkhGYRoGxAXg5N+p7QKCKmhwmIYBn+IC8MV6oKmFgbNgGgZEB4D94JxDh/DN6zQMOIoNgOcDui44nawKiLgALNaJ5M2g5T7XgUkYEMkPdHXQbsPSgAQ6AyZiQGQA/vw5LIFUAEz8fwwGrP6R++rvz0KTVAEVnQFvZO4SIOiGpukE/7SJzIA3/PC7LJhiGhRZVkYHQLpBME9tD2AoMQUDlJiMAV7y40w8TRWYgAEsgi75NQfMnydggMiiM+Ab3osyUbsWCEyR+AyA35V3HBsA0r/cSwRAI51iFlBZbABuv5ERknS0YJJZwNyHjc4AHoQSzw9JIAdiM0BNw4CuEYLxJ1MwAH5bbmwA3nAXkPuVEH6IywCFbw58KgMWi+2DZ7F3H5AEg5DJgcgMEPj+mIf/6eZ2uVx+PT//sHzs6L+kz4fL7WMMSO1WEAKnPth0ArE1AH5NmHroH251YLeXy6ecr+6H7SMpQO8RczwgLkzRCT7MgNvl5SU92rPT09Pz03M8+vXs7P2uc3puMLh8HAArAWwMxdcAfI/8Qwz46/LSRM9h98773efD8l9/e3gY6ihAQhyIywDBb5C5X/aWt1/fn56d3Rv/2T0InJ693zyoAVwI7U4IGBBXA/D/myQeYsDt5dfT8/9Td8XKceNIlAkd32zAPYfLSJpQg8DncDCBmTHRxccLZmudOdn85AkoZ5JZKulC1QVjfeUNgW4QnCEaDZAcz3J3Lde6dqvQfP369QOIdi7/8Ccr9/OBCMCt1QCkph8+Pweo2SGZmwMOAFhtiEc4EdA+d+4AJH07HPyAJDmzIwRfh7oRsK/lpsX/EAUUOgIxEDggAH0Q6IQhDLfJWY/KVuayINd/VP9PKKAPr/4QGycA1B+8uqtAf09YseDh18OP2RDwY/CaHH1RQuUsAV8PqxebYwg0XQoM0J/6S0VgTZAgvnZoA3U7POcJkesH9/SorTMDhNwcL7/ogkBTwGr10R0Ae1fQ9ALJnOcD9g+D69c3hroyYCc3AIHhIkCt//BnwlMGexSYaDk8GwLqbGBsBA7PcdWAr5sTCdDY65cDCQBZsCJI4BCAxLjBAP2WAZIZHaHlveOqKPWJvIsCxGn+QxQadw2AGLQQWBMISKz8By3YFsIxCGi/0XTNzq1PbxJTcyPUV/LuABwz4K6nAk4QIJD/4bkhSPDW4oDOFoztBZZq5fcv9/f37QDd0+clc3AgoQOudqrjGSZBohHQUZCHv9wBSG57+wGlqoNJ3L7Acnn/8vJct/OC1aRg1jxk9e7hpqStIwD73Ua4ZfAhNIIQAZKQQoYE8f0nsC8QowOWb+3w3OeXF2R55hxV3QiQ3eB+JzZDHFAQKoBVBrAdBgFUmgMSETrg7f7Qe7d3I2TB1yXi4JiFEwFfWwSI3sobWwU4JaBASUQ0Q1r7piW+/pYBg3uBJcwOjhoeZUbouhBwqILUM1QFZReC9oczAImdA7j+8G6wXf9DFT09TV+Y3N6XMPy///R1SAf7VZDoflBS2PLDgQFaJRCCgMP644YHGgTgRVEOBEhV6xwUICkdiOlBkSC8dO0FpWAJhSCgXX8Wtf5Mwx8ujcy2DiX46VQFF3r5igJIDhS6Er76pLDFf9oU5CPgsP6H7SLyQRmsh0ZUzgD0IrDzpYBE8jcouCOUoLUhoP3QJKwX2Nf/yeLXby4MVNdFOgKwOYpAYctADwAoUwg4wKJAxQBtBPhV4Ed9H/v+qwxvhIEbUwkEbAI7Qdn/3R1ti1ueqO6L+HuDMcNjjy+M7CZHuBEwZIk2yiWiZZDQNLCmOADpH3SwwgAbAT/qp8WYx741mqwCbj/UKQBNN0xygN0C4QkZPgKun++rEWvPzAjR7cKNgNYPOrUDCn8R7FhgTXDArbGD9NtXpjAXAS/RCZAZJwzmR7Z3Rjv8kCM/tLHcEOFZPxRCNwcYQ8CUwhAEXD8/VeMYQE/QwvlpLgQQHEh0AlYOrMkyaBhAIaAMQMCP+2osA+Kd4VtnO7yse35Y4+sDhrqCO7cl1m4C4M4AHA9hI2D5/DRu/fq6QJwhXREIGOLBQng4sCOBNSmFlRAGGKS6GeQhIHJ2av/CSL16fWOmkwMGvIDC6wdbICA4wKL/0iCA6QhFjY/uTVA0o9T1dZmOAAiXIezJAGFYYO3eG8SFa1NEaYCEeVr8+v5pRA+AExS70TFuBAiXJy5oBWx84Tt3ALpDEeiIsxEwkgIrPUGx6mZoOknQqYKkWLGetb8dBkdcI4DHAWMyIEMjABavroxl6YDG7ocEoX80/0uSA8zik8RoAC2HGQiIHh1qBsjhrrjSgQQHyJgtMZMJ0o+A9pCIpQFaEDAQcD0iA9SV4TBCUw9OqUglOMAAzdCOSNgZCaUDUrQAStwXLBOeHxA7PRi8cBwiu0USZCGgsX941i9BCwqvDuh6IfWkPE8weGpczwbSx4KsIrDdchHAPBlj5wHNAaiBFBNoRmAgYBwFaAQsjBek78UNCwCpAmRvc8CHgAQPiipHuM0CPwKuRxXBDEeI6jvTNQeyymBh6QCeDKQcIb0RYo5GaS7gIWBEAIACoRn2c4DjaBQnA+SK5oB24beGATQCUp4j9DJKBnYSuApCQGO9f1YnSLvCIAJS6IZLJQeYCBjRCeJeAKRAd3k4GwG+DQEB5Cd9jlCCR6RTKIRAAn4ELF+y6BJojsSAF7rFASqhJMiRAKoSEghIoBcGQxxJwIuA5XM1ggGgF6jwdnQeAj71OFAw+wCfJ2iOBIAUTHiu8KgigGvPrDHawQjwU4AwSUDoALN+yAD44UVAtA4EJ8hMT1IRqAI5wO8FyN4pgTUthTUH6jgkzG4wdGpeLwLKCzmdHshAAFSBxn8whKUES7QCdBXUlYCnBPdPo9oApQG2kAVZcBVQ6xfM5TvPyf34G9CePhRgJQADASOqYIWTdFUnaI2C8CKgYe0JnagAshvEE/JwNkAlAOec4POIGtAbn2dPjuEgoCE3BI5CgA0htS/Q2WFpYljAi4Dlc7wRVFnj03rTQaowEvS/fq8fkJRoh2ozGMLA4YCXMa1wdyjCokAfBxTohBVsEbSiD8xrBMCmIHiBZcJzhJaxWwKVaYTaDkj7gRiCL2EkyKI/Qe8LJLgTUqIfAiDwISBuT6QyBAgiUNvh7F6gCZLBkuUKaxNEv3Z9SLDkcMCoTSFggC06wjgO6EsACTKFsPRwQJqgJ6xbQly/HwFRQhDa/0U3Rbk/IImdApLJAVLtjkvaD4AdEVMBWVXg+iEqAzJzNhxmKGb2+LAADmABQHqrAJaA7v4UbIbezRGA4x7gaIrwnzQCGvzlO5MCrZ9rIgVSU/sTYwr7EbB/iFVB6ARoK2hbWVnwhU2CzBSQ2BRS+wKJ3g1Fb5jJATGeeAUnQw0EbASoMersFOBbAb7dYdwNTe3Xz0BA5KZA94FUNTBHj8UBBTsCklMFoA8yPSGXA2ICgHthXQWwRUALASIAhX1ANEAHtmVA0J5gmiZHLMBBwFNMI7wwk5Qr3QXbEzQPQsCPgIJNAYK5L5CgHZxadggDAVkUAtoOeAEno480QDtCk8kBcrMKUUEkB6S2HQyHRFgIyGLSf2GORGyrvgpuKfB3djfI90MlXQWSzggv+1kwBwK6PgAywF6/mqHs0wEFuwhK3Bvw7wukuCmML38mBODXkepo6LY6zoCWBPgIWAU+RC+QWmu3ugEPApZ1Fpz/cCRAO4EqB4wK+lPN0P2dQID5QIQ8HOhAAtkLwLG47mxAykFAcAAWeB5CfxuzrfoyGGYIMxHApgDp+15AbwfA8nspMB0CDNAX7cIX8MbVsOzjkcH/5AWAfTDG7weACkq7NpjJAdfcAGyr9+303N43lq7H9U1GbSmAJuR8qIY/3QuYbqAnhL0IYAZg+/6/r/nYxyCg8H0rfKIBOQhIMe9T4weWEyEgq97yCZ42AIXdDYoQCvRxAKy/a4nTyRCQvc/zqQJAXxcwpgoY+g/rBRgBmGr9EIAmkgPpXgDPRsIJoXJKDvjjNZ8FAZKdAqL7epLwA6wWeFoEPOZTB6AIkoHC/p17X0DJgDKdPgWmGx5rl8HvfEO4OyQhaQQYAJRBAfAB4DXPZ0kBGSKEhfekqKoBadcNp2wO8DDghNODrTIY2AhJ85PcGTqSQDwE+E4Iveb5TBzAawQktwoAA5ShUtgTgCnHR/dTQIQwANweQDtCAzp4dAAmnZUBAUA/ZCVXgWVAeBAwqITejUNAPnUAik1AI9ALgfR8NZbaW4LpRAj4nM+WAuwiKO06QJwPMBoonRABv8wWABHmhknP9wKmGzZfi02CgGknRfTKYJgK8t4g4aiBoxGQz4GAQu8IyBgIEFVgSAePRcAf+WwpIMPXL70ISKeuAp9nCEAT44dLPCu19tjiqXU2ZAIE/DIbAmSgGeL/bjAZ2BgdjYDHyQPQhDcCwr5R8dGzNTYtB0w8MsxCgAikAOE7J4iHI8tpETBPAJpgChSM3WFXIfQhgDwll88SABGzKShWHgSkSZwpSgXg/fQB0HdIymBDXAALPNJCaOIATD0+uTZmUOimmJGCRBUoYUskDeMAKgCf85lIMGJT0PPNUHwV+CkBCNPB0rpKiXaEpg7Av2dIgSZUBdlfjs3CAWcTgh0HhNcA6fUES0cRuMgA8L4TG9waWJMIKNPgc4K//TUQ4D8p6iTBdyMQ8Dh9AGIoQKIfdvjPKA5I/0IpEKMDGX7A1AF4nCcAQkR0AdJri5dRAfjtJwQgWAZ11wo7L1Z2I+DdxSFAypWMKoOCuFl6hBI8lydspYAMf/3Sc7f4LAiYIwDf41QQ6EAZEYARHPDrPAgQYhUtBEU++d7gGRFwpW6UlDGtIHwxQgXAoYSTND4AUyNgv4uVgSvvkJWfywGvb8u35avr71f43+z1hA0R4YZJ7AX+ER6AdDYOeH3bbWQ7PrHmPd/0napRZgiekru5IATs27nBjNHB3SMjKdDyRG8mrwKxHLBUSzo9/28e50w5EU5+HQ7uzhoAAgFLtfpVb2KMWrbc6H/af38age+RFGjOSueXogPqeqcmxuhFqlvzxYb1yDhDVENB5BeCgKtaDc9t169nCMP8nBYCckOMFd5EigCAwMf8Qjigrlf2DcFCHk9PcgFCxjri1MbY+RGwV7NT9bvWS1Uz9CTkghy+OLLg3ho0eI+QgkF+Rg6oCATsa2t6ss4FBIS0fh0apyPi0l9H4WN+VgRUzgDUu3bRQr/wDeAfuF8OJMRoCgQp+JpfBgdcwaQI/d7hV9Ht/B4vvwj/RmBQCH7MzxmAzM0BV3uhh8cKqTMAioAu/g4JMAIAeJMSUZXPqwMONVBt8QtgAGkwL/GHa6CYiHRDqBIwDwLU19GOAHzDiWFC4mKFCoT+3VARaHQSxNZAtyE+awo4EADDYoR52QLfu9T/8niaUmMKhIhWAR/IxvR5nirgQMBVDViHdBfI/ZKSQE2sCmhj+s1ntUzOAeqWiF9dARDClgHWik0QpIcDP0zrNT3PwQFOHdAWAYE6QGgQSKMDjxZf9GcK4mud2mybOAD6ukgnAna9mm8vWA6//gLPRiEAPuaXjgB1R4YjAHUtsAPQjR80ALomCE4nvM4vBgFODqicCMD50cLIYNQ+Qp6wwvCFEXdnRMC72BRwI2BnCR5gAVy17I+U/OTwAtZ/gRRw64D6qwT4b4zzIXQ/4GiEcY7CbCkwMQLgqqzKGQAr1dEAxPd+bIYW1iiZ7tqomzMGIGZfQE/PIgKACLBeudbCYsOaK3tz0QiocIacOwDdwjEOwjIGHWGwVODNhXNApicJuwKATY+FAIEF0TFN7uhs1NQB+PvUHKCHyDoC8O0UAab6yYES2Jy2wucMQDgHVDhBikRAjwN0GygcEqA4uTpv8gD8azoE4PC0BYkA0a8C2O1uemnw6cgOlfMF4P/kXUuP3MYRpg3QgnTK+sC7iQTx7FHLQ5CjOQdPTrSBzSA5mQJEwjdFwJCIT5Gf65vszMZLH/ek1a8M2dVPTld1k8OHAFGjXdmHxXbxq6++qq7uejElB0T8wlASARwAqdwYSLW6ABIEZkPA5V02IQdEYowoEQYTlQWpCJDwwqCdA43T4lMboAmmywVyuC+yMwKBAP72E6MUmOATNXu3Z05sgM3PwVQIAPq7gKsCcQPIfFjtA+i7I9YgcJWuY4DhHAA35hIukPJcMDHqANt+PrzDC+LvLgJgelQOLEAgIJVbncZ+UGqdqnw82RGZ2gCvpuKAyLgw0q0DUgMBabrFkwFjR2BiA7z5aToE5BG/NNsHAUD7WoUYf5I5EXD3w3QcIK9NLxwIUDmQgn5iVEOMaULmhsDUBng9EQL4rfF8mLgXAljyl25THAK7+RFw83oyBERqckRU4AZIt7I9wnB7PRPeEXdoT2uAzQ2RCgQfDDFAzqdos7EZpBDS6U9tC6AioLclNrUBgkmiQM5DgBycQCJAoj5JsM6go35jxowc8EDJgCEIYLVwPj+qG5xSEkrQQAB4Q+pVDZvBAGQQGBwFxOSQoqBzAa0lxiDE04L48bQx4ulyQSB4PCgKQCmIT06h0+EeAraptwqY2ACbu2AqDmBRUI5QpsJgolWEErkxjDHASWPE0+UoYAgCcjZEnF8aH9EISNTL3eqlsRMT7GytQZMaoCE9YJgQUqNjuivjURKU4lfLgRO0HG7pDXs6qQd8NQkCuvjHa4HAAK6SGK+ACjqk1z8jAh4acv2uMPhJTwrDBE02PYzSAXL9ydZeCDwaYnBGBFw6PCB44usCYo64mp5GVoREBVhkgvY9kaMVAFMaoGleBFO4QMSHqPPhWWyEWkllg7IXSMuMvQ+JTGeATfO/YCIEqOlpYog4lQ2mfDNc7g1iBPBfW3fkdAZoHBToNADnANYSI2RgNzbEJYTktojqFSlOgugAABTnSURBVEuR7lBjR2BiAzR3t471Bx96IiCSOwIXYoR0SdUDRFNQat8Q1iaKWXojpzLAw90vwTQGiNQAURihTZNgrxyMMcARRovPhYDLpnmVOQ3wpScJivmhMDoodyCAn4tLtvKUGJEJzoOAy4fm7mf3+l0I+ORVLpqioCkghxGyBakD9M4gvC8Iv0X+6QTLv2nuGo/1By+9EJDnHAFFBPOzchoBW9EWKP550iB1pE7JnGGA+7dvH5rml4uvb5rfAp/H6QJ5f5QyHyQfEQbYYjviFjGUpL4I+FN9rZ79fn99OLTfrtvv8D/a37Su2l/rXxdNU3ztEkDieeZGAAO/0ACCBR0IgGIwb42yb4nwgWKpNwf8udFmdpX7Q31oP3XdmqL9cmj/oxYWOry4zgLP56UHB/CWGBigBsunXUDuhmtXRFpDIHJIxG6Ah99Ctrwwaz/eC3Q9v3q4QCTG6HIK4PPz3LnAlkWDlGqMsB6RwAwQzPDcO10gUghgo+PYDDnaBYy2wJRuDfB3gYdbOSQos81RnssAYAFRCoM8qHByQKqdkEhOj8qpo6KDEBBmAR+izW/HzEL0chDPJ/bgAKZ/LiKZCfMBggQCeCuAyokTJAbaz4lhCIDXLu5JD8UVoeGMBug4IJfT5AsWAsUARQ8EJFt8O2CXoKfFUQRkygLG7MDxvhDGPjoASmF8ijCQYORGgFD/qVkT37kHqqEIgNXzyeEMASEfojYWBR+5DSAr4QUM0YzcCJA+r9ae2OtB9nNiBAICQYAA/1C5wDgTPI79dADUg/gkbbcLaG0xRCkowe4Nw6MAm52bwfC8UCPA0T7wxA8BWiVwGALIPWH0sDTFATA1OlSjw86LAk+8EJBfiCHKXAXTBuB18FTbFDo9JcOKAckgAwAHZOzNh1wQBGJ+0kgMfOhGgNgMABGgjVF2FkW1ZvHE1hWCHhbGEQAMyIbnncA/nMMAoANEUwSTwp4cIFsi+i3iO/dxeZwDlATkc2SzLLBcGO7/PPPhAEYB+uojXwTwlBClAeSsNIUAYEDAgYH7bJJcyIKAXBbD8qKQuTBpAIUBfih84KVBKAeADAj5wCQ1QjObLBWwKkFggP4g+cpRD9Aa5XsOcNyKUsBgBAAFgAxgTnBuPhR7IAAAkKv450GCiUdbBH5hBMoBHPqZGf7OSAcexwMQUES5ZoKSJkEjDti2Bahro/B6ACQDEATEBOlsShlgQ4DaENSDII0A/bicBgPuAMdteqRmyeAICAQCwj7zZdPIAHsUKDQhKBigqJ5THGBco4VxYDICAVIGhNrLHw2Clx4IuIDdMFh/rlmArAmqMLAlqkHDDHAr16+cns8RnSwIWJWgokDNARxRwNYd2z8oiN4LgofBkAuh8Fznx4KANQoAARYmBVbFc7IekCAy+DieBG/5AHE5NSo7sxxmCQI0AgwQVD5KcNs7KHJU/yCmiuI1QUiGjELgtEHAxgGiL0gvBRQVhYBE3yFPrFuDCXVtElETNL1fztGcKhOwIgAKQUVPBnkiQH8+9708kpDCUAjJQAFmZ5SCEA60ICAytwS4CGrX/5ysByT8rERiKYi7bk7DEQAKEBkkf35BEEVA1IsApSsZshYC1eKP9M1xhA4AC4RnvnlUBtkQwNhfrwO0AaAo2+e5Uwlabg3SqgFXw10AasLw4TA4xwwfeyHggq9eL4U4hJB2bB5tj6DuDSN0AK8DTwOBex8EFLwtIjKcoKpoBGz1ixNO3v7RcXkkkQuIeuAUKuhJ7IUAoxDK3n/7OJRgmmqJQDL48ki6IGKQ/zkoeBn7ccBF0dsQ4BAgEZBaV9+Vgj1uDyWigCgBZVpJfKQRHsVeCChOENAmgp0HUELIdmJ810uERnEA7AhMEAExD7DpgCjSM+EKokDrAaUDAdR1EWMRwJc/iRXuPRHANHBkaIAOAUV1IKMAdm/S0WOsLI4AIYa1baGxhvgg9kNA+/YjoxDAENABwIEAxxXS4xAg9d/5XvBr7I0AWHyuEmFAwHM6CpzeIHz0vUWeQEAgdkfPtcFHsT8Cil5BuF29SwkS1wbu3BcI43uDyvPDM1Ph+3goAsT7LyEI0gg4bY773twSGo2AIDRK4tmEaQCOAKMrgC/fmQtsU69rswYqwUwWhM7Sgh/dx94IMPFfAQhaFnBEAVwIu+fqUrmAtvBwegew1gR7qXBHgowE3BxgzQSP4xHA139+BPgmjgcgQKcAVgtr11+3311RgMgEHVdoUzogC85Pg1/GsT8CirzoySDmA3XpygV6KuBoGOJqnAHY8sMZ3z+KgFyWwkogANIFEjlVwq6DXIOFqSigXv5YQ/wex0MQkOthsOQM0JmgdkeBk/vz+WFp1yAJygWC83qCgkf3cTwQASb8S98okOK5kOsSeYoEw/M2A75xHTk55QCjFsI5oH3/Dg5I0q19jIDPJA06DIajJdCj391nbqzZoCaB2bvvGKBEXeA7bEt459oSo2+WZi5wBgP++63PoSMLAnKtGMxlUPupS9wAlhbJnX5MyDVX9zO8S0w0Cg/riN5Xzb3nqSsHB1SCAWkEJNTNge5ZMt9af/DmVlOAfSqopE4tIU6x0HXRNM3bt/GQx5ILGCEAlFBrABwB/HZ5fU/ILIdtXWMz7nESDAdr24EPjgBGgF0tsKpZOQRDwJvvsR2xnZ8KwAywuRVp0IIGUFGg4kq4YP5f4RwgJ0xgXuAeJmT/1d7cBngaFM+PgA777NWzp/UBRAd8etPvkNsNC4IEAkI0F4pnR0D37oFfum8UAm6IqxOPPhSAIGAjlaClOXR+BFRCB7P111VNI+C0QXonL05zjg5yusAaHMDXXwkLoErwUhweTsdOVPsLigA8GZwbATIElGL9KALgamm0IO4xTeuvMa0D1uGAihfEywJkEIoAJQSstQCPeWJ2IQhbY7xHMFseAZz9OAO2FIAi4I/fm13SR/l354cAuxCMP12RA0qVCTAd3FoArQd0Eyct/r/DL4zw40BRFrcrodldQGwHqSCAIkD4wNjR2tigLa4EF+aAX8R2WFkUSgQxLYgb4KbXHrgbNFr5s5giQSQQzGsAgYBCiqAaV4KdD3yHNgddjfYAOgrcz2kAkQRJHqy7MIByQM8HjqIgeIRN86tR9TCNA1ZxgYLbgAWAqmMAAgFs6CSyLX41UgdzBGRLCyHhApWohLAQULN6AG6AGGVBdxD4LH63EHDBSoFVARRQiWpQh4HnhN+lCZIKnzE9dUPVBGfjgItKNIUJKSR8gHCBNiEQGNh5nZaWz9+IX21FBIhaeAWlEO4DB9Lqb9KrwSIg+Zb6ietEgRw6ggT/AweUTgRAaUiMWLi66r64+P9zx8+DZumlEZCzQhjUwrtiWMd+dU0rwZmeNz+u4QI574zmMrgABNBCaC4D/LRGLgCl0FJSAEdAvQYCflqDAwqgf1kK7GwAWrh+sYYBsqVdgMGfI6DmedBaCPhhFQQU3PeVDBRecPh1YQOsogOgOboyKiECA++SAWZEQFUqD4BKCF//0ghoVkEAbIaXqhjMOIAJofrjZQ2wjhSupAoGCFS1ej5+LxBQCQZgBAgxEKywf/YOIeB+PgSUohRalzwPFs+z9wYBwgX0ENA+L98LA0gdUJeVJgLaILC4AV6vhADBf93aS80D6i/fIQPMyAE8CnIRXEoSONT/XNgAL9ZBALSGi80A+ezrhQ1wefdiLSEkXUAmgmCCfyxrAPKy+LkMsFHFsNqIAPv2zxfvgQFEFID3r0WAzgXqRQ2waYJ1ENCuvGAeUBshoD4cli0IkOOT5+QAVgdk62fbYgICh6VLQpsfV0IAswAUQjUd3FngsGg29PDDOgiAliC2/EpbPiPCRaXgw39WQgAowYovvxSvvxvssKgQaP6wFgeoJLCsDBrcP15UB2WrIaCWXqD8f3/opMCiUTAL1kuGAPlmGNy3gXDBqiAdBGbmgLrUcwFggG68y/WCLNjcBusgQO0Gmw+bbrMgC9LTg+dDQM1kcA1bAmLtByaEWym4f1coYFYXqEs9B2RZwL4DQPtlOSn08CpYDwFs9VoxCFIhJgWWyoids1PnTIYgCMogsK/5gKtDZ4KF0oENWQ2ZFQF1rxa+5xaoOwscDt8sY4DmVbCOAS5h/ZVhg27I2QFQcH29CAQeHDHgdFrOhAao+PorpQKZDzAP2F8vEQkvnbMj5zMA7If2Hjbpbs9o4HC9gBq8u3k98lqksw0Q70vYD1QM0KqAmn0YBxwOj2Z3gs2NiwFmNADfEDKEAOc//lz//X7u9d98NeKK6IkMAPiXbUH/b+9qVuM4gnArUAn2KQnYRkfPIULzNJVA02cbjPDV0NpXsI8OONb6uGCE9JTZ6frpmp6xrJ3d3jW4G62EjvV1/X5V2zWoQORkkKxg6wf/3tR1gO+/uz25IgDpuwGj26ccYEVLP7fZ8PYvnFeD4H79/hHyf+NxxIMAkKS/sh2BwHTAAMIWg+GD4fy+gvT93Xp9c/P7slfSD6gBph2YakBmxEgF/BaB7XGwenW+vj+AJvT3dNbpfPj4qNci6mnAi+tpHbwKav+RPgkDeuXILzkDiKvEPLzdynyz5vNhvY77vA96CAA+m5kYJYI0DWITGLb+ljKhT8tht4f+pIfxZS3C3K1C+mbCzYd1Pi8e/VZIRQCs7JQAr+j26fisAfZA/gMDBADDJ6EB6V/Cho55G8fBsheC6gHwtcwDkwFoFjR4gSR9YF+QIRjk9MMHVBeAFmampYH8m96FQdzzsfhfKgJgECAqOGXCKQAmA6BoWN4/70jeCo/m7umfQWIPvDRT14bthcC7agBcaEuMeDC1fjEB1oDy/kkFBlcw3H8SPskOcvN07bI5C3G/F0L/rAeAZcMj02FiASkIhMEDDhoQRw6AfpHgJDyLzIfXJ6OuTgWnC2QO9kbuAQD4a1QEjh1AEnxAwEc/sX9PPiCHAuP4SPXFCQCtD7KbE3fWhU01AF7mhnigILgyhVCyAbr+SSAYAmG6fp8lt1aAbAayNAjkrcAlD+bWA+ByqgEjBUjyj6UHFp7sHzFnBKiiixI4p0uTcJ/3krtqAPRh1BKnOsDkgaIBKRIaEyAdSCCI0Y89AS+MMYEAFyn/0QAI1BAzVUBMsT/JT+ngbB6gqaBn4dUPsO1nDTCOYMc9Wmf1AGBCgON/soDIbGCSP8xYAJAKpMtH9gQj45fr55VxZnEWPY+wsxXUBMBOxnEdKGRA+jUJAaL9yNFAvT+A6gBk+VP4Q714d+JMeArAi5IIyREgWX3kSDhSfszlUJEC2e3xHAHoh5PhZWlATQA+SQ2s7TAlAykM+lB4QEn/6P41AmgMYFXgHbq8OAuN9Ltj8E9FAG5NQ9BkAV40IIykHyeDnAUkI8h5UN4ZSDkQb9EFuz1mR1t4XRGAC9Z/owGrXAYMGjDJAtjyAb1UwggoMlt14GQo+4ClJdGmIgCXgcchqCXOROBg+WH+9gE0GaLgny7feACU25fcB52JASdOA6YA9IEVgDWAPSA7v8CFQMz5LwfAlASlHADGOQAbgFEJWZ+MskRtVzX4rSoAuSNIDlCpMEp+wkgJuAZETgdIA2wZ4MQNsBsUDdAccIkWPKkJQPdM8mBOAqLqAHGikxIIJAnOTtBlyXlhtpIBtD8eliVAB+eD5gD4Sv3gGEdksCdCPM74wHT5XoSfKQRB1uYxGQC5BMbR69kniIIzAFxkDVhlHigwERwm4S+pP0oOyHL7kfdDNDxgXh642AluqgJwSTMhuSEe2Qn4kgpkMhCJC/SZ/vWyLRYkB6L9uajE6H47pLuqAPTcCliZPDjpfaREOGomjJYRJQfgjedTFUgGoGSo1IDLd4f8WheAbTUQaSxG5ZeW0LQMAi6BgFNgwJwNZvuXesCBJgPg8nuZcLpKYBaAWw2ClglOPEBJBwKVQJwFcTsERkkQm4DmwSAvBC6nxd9VBuBlYEYwkiPwHAMpFxq7QeRSOGVBHosDYOyeuXHn7DplWFILbSoD0CcOTF2g5gAlFYDaCdM8mFKhXAQ6TQRQloeCrk35IVzAHACpIk63n5ng+RqQXIDXjijzwb4gg0hk5O2JkJlwOHkaNA/AbSQV0PgnDdGCDQO2AaUClQ2VKtiUAtwSygTg4lT43+oA9MIDUBkQ5j0g5UBcC1sqpPCBlg2kxoARGk+cBcwDsC0HTD8ocgyIsWADkWoAUCNQDSgtgBkAwwTitx/LPK4FzANwEbQMUjp4jggVIgiJFEXNBUYUCEpjmOLhvqvEXx8BgF5m4ryOBLAnjNkVgjp/nwciDCfsRiCg7FHfd3fkWXcEALqv2hL37Px8WQlpO4CGIkYjIJgpEE0CyQcCqf7y3UkHrQS/DcClmQpgJxjj7FwMYm6FFDmQpIAuc2KQN2jCsmwQuqMA0H1SJiDVP9NmCGg3RJUBJnx4LokMAvudp0cC4JKY0ChcWDBFoHpA5JkIOxJgZwKAt8ejFMDqFN0PQQU8BEB3a8bCsuRjD8iFEKj786M6iIiwXAfhfuH/8HXQgwD0US1A3EA5FQSo4wAyDKV6LyA4dQHSDVc6dElL4Kw7GgDdy6z85AHihAn00hWWYQDvMiHi8picM+0Q3MsDbI4IQPdZufDopyEAtSWSq0AEmws7kMSHsh/MzfClo1GHN4CHAOif6URYmQWA8mDA3p/HgzDPA6kr5EzQzQ0H7qYPVb69/0Bp0b8JGgPDpBgG5QM8tURI/53tCpPiy3SoQ94YszAW1nm94KHaqn/jxQKmc9E8GAeTIshZQpRnImUu0mQC8EPc/8MAbK0AJA8OpR/0hgtUJ4CjmQgeBKCZSLn+JSNBw6n1pd3vVNf/EQ0wnYtNQTAZvs99QF8UBI5HYlgD0C0vgr90pwGgu3zmmQwpKyHSACuyd1gqgHZFxAG4RV3xJ5vuVAB03d0bhELzmQtDbYnONQJQs2CyheUTAWf3XXdCALau4OMVuvnRUCxaQTnuo2EEDQOw81TQ9Zeu6nkkw9bfPb+K3h33+NXbytI/HgA693fr8z+e8zaya3lp52q1/wnUi6Qv6q6uX31cf9l0Rzmu+8lPA6AB0ABoADQAGgANgAZAA6AB0ABoADQAGgANgAZAA6AB0ABoADQAGgANgAZAA6AB0ABoAPwU539/KtsbESqmFQAAAABJRU5ErkJggg==;align=left;labelPosition=right;fontStyle=1;html=1;" parent="1" vertex="1">
          <mxGeometry x="-2480" y="60" width="29.32" height="29.32" as="geometry" />
        </mxCell>
        <mxCell id="F-F-gPhgKNkpaGTW-qkE-70" value="" style="edgeStyle=orthogonalEdgeStyle;rounded=0;orthogonalLoop=1;jettySize=auto;html=1;entryX=0;entryY=0.5;entryDx=0;entryDy=0;" parent="1" source="F-F-gPhgKNkpaGTW-qkE-66" target="F-F-gPhgKNkpaGTW-qkE-67" edge="1">
          <mxGeometry relative="1" as="geometry">
            <mxPoint x="-3155" y="611.5799999999999" as="targetPoint" />
          </mxGeometry>
        </mxCell>
        <mxCell id="F-F-gPhgKNkpaGTW-qkE-71" value="&lt;span style=&quot;&quot;&gt;port 22 - SSH&lt;br&gt;&lt;/span&gt;&lt;div&gt;&lt;span style=&quot;&quot;&gt;Backup &amp;amp; Restore&lt;/span&gt;&lt;/div&gt;" style="edgeLabel;html=1;align=center;verticalAlign=middle;resizable=0;points=[];labelBackgroundColor=none;" parent="F-F-gPhgKNkpaGTW-qkE-70" vertex="1" connectable="0">
          <mxGeometry x="0.0818" y="-1" relative="1" as="geometry">
            <mxPoint x="-6" y="14" as="offset" />
          </mxGeometry>
        </mxCell>
        <mxCell id="F-F-gPhgKNkpaGTW-qkE-66" value="&lt;b&gt;vm: kafka-node-0&lt;/b&gt;" style="rounded=0;whiteSpace=wrap;html=1;align=center;glass=1;shadow=1;fillColor=#d5e8d4;strokeColor=#82b366;labelPosition=center;verticalLabelPosition=middle;verticalAlign=middle;spacingTop=0;spacingLeft=0;spacingBottom=0;spacing=0;" parent="1" vertex="1">
          <mxGeometry x="-3475" y="556.58" width="240" height="110" as="geometry" />
        </mxCell>
        <mxCell id="F-F-gPhgKNkpaGTW-qkE-67" value="&lt;b&gt;vms: kafka-nodes 1-9&lt;/b&gt;" style="rounded=0;whiteSpace=wrap;html=1;align=center;glass=1;shadow=1;fillColor=#d5e8d4;strokeColor=#82b366;labelPosition=center;verticalLabelPosition=middle;verticalAlign=middle;spacingTop=0;spacingLeft=0;spacingBottom=0;spacing=0;" parent="1" vertex="1">
          <mxGeometry x="-3095" y="556.58" width="240" height="110" as="geometry" />
        </mxCell>
        <mxCell id="F-F-gPhgKNkpaGTW-qkE-72" value="&lt;div&gt;&lt;div&gt;&lt;br&gt;&lt;/div&gt;&lt;/div&gt;" style="rounded=0;whiteSpace=wrap;html=1;align=left;glass=1;shadow=1;fillColor=#d5e8d4;strokeColor=#82b366;labelPosition=center;verticalLabelPosition=middle;verticalAlign=top;spacingTop=0;spacingLeft=5;spacingBottom=5;" parent="1" vertex="1">
          <mxGeometry x="-3085" y="862.72" width="240" height="110" as="geometry" />
        </mxCell>
        <mxCell id="F-F-gPhgKNkpaGTW-qkE-73" value="" style="edgeStyle=orthogonalEdgeStyle;rounded=0;orthogonalLoop=1;jettySize=auto;html=1;entryX=0;entryY=0.5;entryDx=0;entryDy=0;" parent="1" source="F-F-gPhgKNkpaGTW-qkE-75" target="F-F-gPhgKNkpaGTW-qkE-76" edge="1">
          <mxGeometry relative="1" as="geometry">
            <mxPoint x="-3155" y="907.7199999999998" as="targetPoint" />
          </mxGeometry>
        </mxCell>
        <mxCell id="F-F-gPhgKNkpaGTW-qkE-74" value="ports 9100-9200 - SSL&lt;div&gt;Kafka Management&lt;/div&gt;" style="edgeLabel;html=1;align=center;verticalAlign=middle;resizable=0;points=[];labelBackgroundColor=none;" parent="F-F-gPhgKNkpaGTW-qkE-73" vertex="1" connectable="0">
          <mxGeometry x="0.0818" y="-1" relative="1" as="geometry">
            <mxPoint x="-6" y="14" as="offset" />
          </mxGeometry>
        </mxCell>
        <mxCell id="F-F-gPhgKNkpaGTW-qkE-75" value="&lt;div style=&quot;&quot;&gt;&lt;b style=&quot;background-color: initial;&quot;&gt;vm: kafka-node-0&lt;/b&gt;&lt;/div&gt;" style="rounded=0;whiteSpace=wrap;html=1;align=center;glass=1;shadow=1;fillColor=#d5e8d4;strokeColor=#82b366;labelPosition=center;verticalLabelPosition=middle;verticalAlign=middle;spacingTop=0;spacingLeft=0;spacingBottom=0;spacing=0;" parent="1" vertex="1">
          <mxGeometry x="-3475" y="852.72" width="240" height="110" as="geometry" />
        </mxCell>
        <mxCell id="F-F-gPhgKNkpaGTW-qkE-76" value="&lt;b&gt;vms: kafka-nodes 1-9&lt;/b&gt;" style="rounded=0;whiteSpace=wrap;html=1;align=center;glass=1;shadow=1;fillColor=#d5e8d4;strokeColor=#82b366;labelPosition=center;verticalLabelPosition=middle;verticalAlign=middle;spacingTop=0;spacingLeft=0;spacingBottom=0;spacing=0;" parent="1" vertex="1">
          <mxGeometry x="-3095" y="852.72" width="240" height="110" as="geometry" />
        </mxCell>
        <mxCell id="F-F-gPhgKNkpaGTW-qkE-79" value="" style="edgeStyle=orthogonalEdgeStyle;rounded=0;orthogonalLoop=1;jettySize=auto;html=1;" parent="1" source="F-F-gPhgKNkpaGTW-qkE-78" target="F-F-gPhgKNkpaGTW-qkE-66" edge="1">
          <mxGeometry relative="1" as="geometry" />
        </mxCell>
        <mxCell id="F-F-gPhgKNkpaGTW-qkE-80" value="&lt;div&gt;&lt;span style=&quot;background-color: initial;&quot;&gt;Port 22 -&amp;nbsp;&lt;/span&gt;&lt;span style=&quot;background-color: initial;&quot;&gt;SSH&lt;/span&gt;&lt;br&gt;&lt;/div&gt;" style="edgeLabel;html=1;align=center;verticalAlign=middle;resizable=0;points=[];labelBackgroundColor=none;" parent="F-F-gPhgKNkpaGTW-qkE-79" vertex="1" connectable="0">
          <mxGeometry x="-0.1944" y="-1" relative="1" as="geometry">
            <mxPoint x="3" y="8" as="offset" />
          </mxGeometry>
        </mxCell>
        <mxCell id="F-F-gPhgKNkpaGTW-qkE-78" value="Operator" style="points=[[0.03,0.03,0],[0.5,0,0],[0.97,0.03,0],[1,0.4,0],[0.97,0.745,0],[0.5,1,0],[0.03,0.745,0],[0,0.4,0]];verticalLabelPosition=bottom;sketch=0;html=1;verticalAlign=top;aspect=fixed;align=center;pointerEvents=1;shape=mxgraph.cisco19.workstation;fillColor=#005073;strokeColor=none;" parent="1" vertex="1">
          <mxGeometry x="-3635" y="591.58" width="50" height="40" as="geometry" />
        </mxCell>
        <mxCell id="F-F-gPhgKNkpaGTW-qkE-82" value="" style="edgeStyle=orthogonalEdgeStyle;rounded=0;orthogonalLoop=1;jettySize=auto;html=1;" parent="1" source="F-F-gPhgKNkpaGTW-qkE-81" target="F-F-gPhgKNkpaGTW-qkE-75" edge="1">
          <mxGeometry relative="1" as="geometry" />
        </mxCell>
        <mxCell id="F-F-gPhgKNkpaGTW-qkE-83" value="Port 443 - HTTPS" style="edgeLabel;html=1;align=center;verticalAlign=middle;resizable=0;points=[];labelBackgroundColor=none;" parent="F-F-gPhgKNkpaGTW-qkE-82" vertex="1" connectable="0">
          <mxGeometry x="0.1317" y="1" relative="1" as="geometry">
            <mxPoint x="-10" y="9" as="offset" />
          </mxGeometry>
        </mxCell>
        <mxCell id="F-F-gPhgKNkpaGTW-qkE-81" value="Operator" style="points=[[0.03,0.03,0],[0.5,0,0],[0.97,0.03,0],[1,0.4,0],[0.97,0.745,0],[0.5,1,0],[0.03,0.745,0],[0,0.4,0]];verticalLabelPosition=bottom;sketch=0;html=1;verticalAlign=top;aspect=fixed;align=center;pointerEvents=1;shape=mxgraph.cisco19.workstation;fillColor=#005073;strokeColor=none;" parent="1" vertex="1">
          <mxGeometry x="-3635" y="887.72" width="50" height="40" as="geometry" />
        </mxCell>
        <mxCell id="F-F-gPhgKNkpaGTW-qkE-86" value="Kafka Management Operation via Command Line Interface" style="rounded=0;whiteSpace=wrap;html=1;align=left;glass=1;shadow=1;verticalAlign=top;spacingLeft=5;fillColor=#f5f5f5;fontColor=#333333;strokeColor=#666666;fontStyle=1" parent="1" vertex="1">
          <mxGeometry x="-3680" y="1072.27" width="880" height="257.73" as="geometry" />
        </mxCell>
        <mxCell id="F-F-gPhgKNkpaGTW-qkE-87" value="&lt;div&gt;&lt;div&gt;&lt;br&gt;&lt;/div&gt;&lt;/div&gt;" style="rounded=0;whiteSpace=wrap;html=1;align=left;glass=1;shadow=1;fillColor=#d5e8d4;strokeColor=#82b366;labelPosition=center;verticalLabelPosition=middle;verticalAlign=top;spacingTop=0;spacingLeft=5;spacingBottom=5;" parent="1" vertex="1">
          <mxGeometry x="-3085" y="1151.1399999999999" width="240" height="110" as="geometry" />
        </mxCell>
        <mxCell id="F-F-gPhgKNkpaGTW-qkE-88" value="" style="edgeStyle=orthogonalEdgeStyle;rounded=0;orthogonalLoop=1;jettySize=auto;html=1;entryX=0;entryY=0.5;entryDx=0;entryDy=0;" parent="1" source="F-F-gPhgKNkpaGTW-qkE-90" target="F-F-gPhgKNkpaGTW-qkE-91" edge="1">
          <mxGeometry relative="1" as="geometry">
            <mxPoint x="-3155" y="1196.1399999999999" as="targetPoint" />
          </mxGeometry>
        </mxCell>
        <mxCell id="F-F-gPhgKNkpaGTW-qkE-89" value="ports 9100-9200 - SSL&lt;div&gt;Kafka Management&lt;/div&gt;" style="edgeLabel;html=1;align=center;verticalAlign=middle;resizable=0;points=[];labelBackgroundColor=none;" parent="F-F-gPhgKNkpaGTW-qkE-88" vertex="1" connectable="0">
          <mxGeometry x="0.0818" y="-1" relative="1" as="geometry">
            <mxPoint x="-6" y="14" as="offset" />
          </mxGeometry>
        </mxCell>
        <mxCell id="F-F-gPhgKNkpaGTW-qkE-90" value="&lt;div style=&quot;&quot;&gt;&lt;b style=&quot;background-color: initial;&quot;&gt;vm: kafka-nodes 1-9&lt;/b&gt;&lt;/div&gt;" style="rounded=0;whiteSpace=wrap;html=1;align=center;glass=1;shadow=1;fillColor=#d5e8d4;strokeColor=#82b366;labelPosition=center;verticalLabelPosition=middle;verticalAlign=middle;spacingTop=0;spacingLeft=0;spacingBottom=0;spacing=0;" parent="1" vertex="1">
          <mxGeometry x="-3475" y="1141.1399999999999" width="240" height="110" as="geometry" />
        </mxCell>
        <mxCell id="F-F-gPhgKNkpaGTW-qkE-91" value="&lt;b&gt;vms: kafka-nodes 1-9&lt;/b&gt;" style="rounded=0;whiteSpace=wrap;html=1;align=center;glass=1;shadow=1;fillColor=#d5e8d4;strokeColor=#82b366;labelPosition=center;verticalLabelPosition=middle;verticalAlign=middle;spacingTop=0;spacingLeft=0;spacingBottom=0;spacing=0;" parent="1" vertex="1">
          <mxGeometry x="-3095" y="1141.1399999999999" width="240" height="110" as="geometry" />
        </mxCell>
        <mxCell id="F-F-gPhgKNkpaGTW-qkE-92" value="" style="edgeStyle=orthogonalEdgeStyle;rounded=0;orthogonalLoop=1;jettySize=auto;html=1;" parent="1" source="F-F-gPhgKNkpaGTW-qkE-94" target="F-F-gPhgKNkpaGTW-qkE-90" edge="1">
          <mxGeometry relative="1" as="geometry" />
        </mxCell>
        <mxCell id="F-F-gPhgKNkpaGTW-qkE-93" value="Port 9143 - HTTPS" style="edgeLabel;html=1;align=center;verticalAlign=middle;resizable=0;points=[];labelBackgroundColor=none;" parent="F-F-gPhgKNkpaGTW-qkE-92" vertex="1" connectable="0">
          <mxGeometry x="0.1317" y="1" relative="1" as="geometry">
            <mxPoint x="-10" y="9" as="offset" />
          </mxGeometry>
        </mxCell>
        <mxCell id="F-F-gPhgKNkpaGTW-qkE-94" value="Operator" style="points=[[0.03,0.03,0],[0.5,0,0],[0.97,0.03,0],[1,0.4,0],[0.97,0.745,0],[0.5,1,0],[0.03,0.745,0],[0,0.4,0]];verticalLabelPosition=bottom;sketch=0;html=1;verticalAlign=top;aspect=fixed;align=center;pointerEvents=1;shape=mxgraph.cisco19.workstation;fillColor=#005073;strokeColor=none;" parent="1" vertex="1">
          <mxGeometry x="-3635" y="1176.1399999999999" width="50" height="40" as="geometry" />
        </mxCell>
        <mxCell id="F-F-gPhgKNkpaGTW-qkE-116" value="" style="rounded=0;orthogonalLoop=1;jettySize=auto;html=1;exitX=1;exitY=0.25;exitDx=0;exitDy=0;entryX=0;entryY=0.75;entryDx=0;entryDy=0;startArrow=classic;startFill=1;" parent="1" source="F-F-gPhgKNkpaGTW-qkE-101" target="F-F-gPhgKNkpaGTW-qkE-107" edge="1">
          <mxGeometry relative="1" as="geometry">
            <mxPoint x="-2198.5299999999997" y="1676.0344827586205" as="sourcePoint" />
            <mxPoint x="-2188.5299999999997" y="1676" as="targetPoint" />
          </mxGeometry>
        </mxCell>
        <mxCell id="F-F-gPhgKNkpaGTW-qkE-126" value="port 9101 - SSL&lt;div&gt;Controllers sync&lt;/div&gt;" style="edgeLabel;html=1;align=center;verticalAlign=middle;resizable=0;points=[];labelBackgroundColor=none;" parent="F-F-gPhgKNkpaGTW-qkE-116" vertex="1" connectable="0">
          <mxGeometry x="0.292" y="2" relative="1" as="geometry">
            <mxPoint x="-12" y="-16" as="offset" />
          </mxGeometry>
        </mxCell>
        <mxCell id="F-F-gPhgKNkpaGTW-qkE-101" value="&lt;b style=&quot;text-align: left;&quot;&gt;vm:&lt;span style=&quot;white-space: pre;&quot;&gt;&#x9;&lt;span style=&quot;white-space: pre;&quot;&gt;&#x9;&lt;/span&gt;&lt;/span&gt;kafka-node-1&lt;/b&gt;&lt;div style=&quot;text-align: left;&quot;&gt;&lt;b&gt;role:&lt;span style=&quot;white-space: pre;&quot;&gt;&#x9;&lt;/span&gt;Controller #1&lt;/b&gt;&lt;/div&gt;" style="rounded=0;whiteSpace=wrap;html=1;align=center;glass=1;shadow=1;fillColor=#d5e8d4;strokeColor=#82b366;labelPosition=center;verticalLabelPosition=middle;verticalAlign=middle;spacingTop=0;spacingLeft=0;spacingBottom=0;spacing=0;" parent="1" vertex="1">
          <mxGeometry x="-2387.2799999999997" y="1630.09" width="170" height="90" as="geometry" />
        </mxCell>
        <mxCell id="F-F-gPhgKNkpaGTW-qkE-118" value="" style="rounded=0;orthogonalLoop=1;jettySize=auto;html=1;entryX=0;entryY=0.25;entryDx=0;entryDy=0;startArrow=classic;startFill=1;exitX=1;exitY=0.75;exitDx=0;exitDy=0;" parent="1" source="F-F-gPhgKNkpaGTW-qkE-107" target="F-F-gPhgKNkpaGTW-qkE-108" edge="1">
          <mxGeometry relative="1" as="geometry">
            <mxPoint x="-1908.53" y="1621" as="sourcePoint" />
            <mxPoint x="-1848.53" y="1676" as="targetPoint" />
          </mxGeometry>
        </mxCell>
        <mxCell id="F-F-gPhgKNkpaGTW-qkE-128" value="port 9101 - SSL&lt;div&gt;Controllers sync&lt;/div&gt;" style="edgeLabel;html=1;align=center;verticalAlign=middle;resizable=0;points=[];labelBackgroundColor=none;" parent="F-F-gPhgKNkpaGTW-qkE-118" vertex="1" connectable="0">
          <mxGeometry x="-0.3688" relative="1" as="geometry">
            <mxPoint x="18" y="-18" as="offset" />
          </mxGeometry>
        </mxCell>
        <mxCell id="F-F-gPhgKNkpaGTW-qkE-107" value="&lt;b style=&quot;text-align: left;&quot;&gt;vm:&lt;span style=&quot;white-space: pre;&quot;&gt;&#x9;&lt;span style=&quot;white-space: pre;&quot;&gt;&#x9;&lt;/span&gt;&lt;/span&gt;kafka-node-2&lt;/b&gt;&lt;div style=&quot;text-align: left;&quot;&gt;&lt;b&gt;role:&lt;span style=&quot;white-space: pre;&quot;&gt;&#x9;&lt;/span&gt;Controller #2&lt;/b&gt;&lt;/div&gt;" style="rounded=0;whiteSpace=wrap;html=1;align=center;glass=1;shadow=1;fillColor=#d5e8d4;strokeColor=#82b366;labelPosition=center;verticalLabelPosition=middle;verticalAlign=middle;spacingTop=0;spacingLeft=0;spacingBottom=0;spacing=0;" parent="1" vertex="1">
          <mxGeometry x="-2121.0299999999997" y="1585.09" width="170" height="90" as="geometry" />
        </mxCell>
        <mxCell id="F-F-gPhgKNkpaGTW-qkE-108" value="&lt;b&gt;vm:&lt;span style=&quot;white-space: pre;&quot;&gt;&#x9;&lt;span style=&quot;white-space: pre;&quot;&gt;&#x9;&lt;/span&gt;&lt;/span&gt;kafka-node-3&lt;/b&gt;&lt;div&gt;&lt;b&gt;role:&lt;span style=&quot;white-space: pre;&quot;&gt;&#x9;&lt;/span&gt;Controller #3&lt;/b&gt;&lt;/div&gt;" style="rounded=0;whiteSpace=wrap;html=1;align=center;glass=1;shadow=1;fillColor=#d5e8d4;strokeColor=#82b366;labelPosition=center;verticalLabelPosition=middle;verticalAlign=middle;spacingTop=0;spacingLeft=0;spacingBottom=0;spacing=0;" parent="1" vertex="1">
          <mxGeometry x="-1857.28" y="1630.09" width="170" height="90" as="geometry" />
        </mxCell>
        <mxCell id="F-F-gPhgKNkpaGTW-qkE-139" value="" style="edgeStyle=orthogonalEdgeStyle;rounded=0;orthogonalLoop=1;jettySize=auto;html=1;entryX=0;entryY=0.75;entryDx=0;entryDy=0;exitX=1;exitY=0.75;exitDx=0;exitDy=0;startArrow=classic;startFill=1;" parent="1" source="F-F-gPhgKNkpaGTW-qkE-101" target="F-F-gPhgKNkpaGTW-qkE-108" edge="1">
          <mxGeometry relative="1" as="geometry">
            <mxPoint x="-1943.53" y="1616" as="sourcePoint" />
            <mxPoint x="-1795.53" y="1664" as="targetPoint" />
          </mxGeometry>
        </mxCell>
        <mxCell id="F-F-gPhgKNkpaGTW-qkE-140" value="port 9101 - SSL&lt;div&gt;Controllers sync&lt;/div&gt;" style="edgeLabel;html=1;align=center;verticalAlign=middle;resizable=0;points=[];labelBackgroundColor=none;" parent="F-F-gPhgKNkpaGTW-qkE-139" vertex="1" connectable="0">
          <mxGeometry x="-0.3688" relative="1" as="geometry">
            <mxPoint x="73" y="15" as="offset" />
          </mxGeometry>
        </mxCell>
        <mxCell id="lMhWHMwM5XV4kthdbhf3-22" value="" style="rounded=0;orthogonalLoop=1;jettySize=auto;html=1;entryX=0.189;entryY=0.996;entryDx=0;entryDy=0;startArrow=classic;startFill=1;entryPerimeter=0;exitX=0.294;exitY=-0.002;exitDx=0;exitDy=0;exitPerimeter=0;" edge="1" parent="1">
          <mxGeometry relative="1" as="geometry">
            <mxPoint x="-2182.2799999999997" y="2079.63364" as="sourcePoint" />
            <mxPoint x="-2182.08" y="2002.4472799999999" as="targetPoint" />
          </mxGeometry>
        </mxCell>
        <mxCell id="lMhWHMwM5XV4kthdbhf3-28" value="port 9106 - SSL&lt;div&gt;Broker-Connect sync&lt;/div&gt;" style="edgeLabel;html=1;align=center;verticalAlign=middle;resizable=0;points=[];labelBackgroundColor=none;" vertex="1" connectable="0" parent="lMhWHMwM5XV4kthdbhf3-22">
          <mxGeometry x="-0.1397" y="-1" relative="1" as="geometry">
            <mxPoint x="-58" y="-3" as="offset" />
          </mxGeometry>
        </mxCell>
        <mxCell id="lMhWHMwM5XV4kthdbhf3-1" value="" style="rounded=0;whiteSpace=wrap;html=1;align=left;glass=1;shadow=1;verticalAlign=top;spacingLeft=5;fillColor=#f5f5f5;fontColor=#333333;strokeColor=#666666;fontStyle=1" vertex="1" parent="1">
          <mxGeometry x="-2417.2799999999997" y="2080" width="760" height="183.18" as="geometry" />
        </mxCell>
        <mxCell id="lMhWHMwM5XV4kthdbhf3-2" value="" style="rounded=0;orthogonalLoop=1;jettySize=auto;html=1;exitX=1;exitY=0.25;exitDx=0;exitDy=0;entryX=0;entryY=0.75;entryDx=0;entryDy=0;startArrow=classic;startFill=1;" edge="1" parent="1" source="lMhWHMwM5XV4kthdbhf3-4" target="lMhWHMwM5XV4kthdbhf3-7">
          <mxGeometry relative="1" as="geometry">
            <mxPoint x="-2198.5299999999997" y="2195.0344827586205" as="sourcePoint" />
            <mxPoint x="-2188.5299999999997" y="2195" as="targetPoint" />
          </mxGeometry>
        </mxCell>
        <mxCell id="lMhWHMwM5XV4kthdbhf3-3" value="port 9103 - SSL&lt;div&gt;Connect sync&lt;/div&gt;" style="edgeLabel;html=1;align=center;verticalAlign=middle;resizable=0;points=[];labelBackgroundColor=none;" vertex="1" connectable="0" parent="lMhWHMwM5XV4kthdbhf3-2">
          <mxGeometry x="0.292" y="2" relative="1" as="geometry">
            <mxPoint x="-12" y="-16" as="offset" />
          </mxGeometry>
        </mxCell>
        <mxCell id="lMhWHMwM5XV4kthdbhf3-4" value="&lt;b style=&quot;text-align: left;&quot;&gt;vm:&lt;span style=&quot;white-space: pre;&quot;&gt;&#x9;&lt;span style=&quot;white-space: pre;&quot;&gt;&#x9;&lt;/span&gt;&lt;/span&gt;kafka-node-7&lt;/b&gt;&lt;div style=&quot;text-align: left;&quot;&gt;&lt;b&gt;role:&lt;span style=&quot;white-space: pre;&quot;&gt;&#x9;&lt;/span&gt;Connect #1&lt;/b&gt;&lt;/div&gt;" style="rounded=0;whiteSpace=wrap;html=1;align=center;glass=1;shadow=1;fillColor=#d5e8d4;strokeColor=#82b366;labelPosition=center;verticalLabelPosition=middle;verticalAlign=middle;spacingTop=0;spacingLeft=0;spacingBottom=0;spacing=0;" vertex="1" parent="1">
          <mxGeometry x="-2387.2799999999997" y="2149.09" width="170" height="90" as="geometry" />
        </mxCell>
        <mxCell id="lMhWHMwM5XV4kthdbhf3-5" value="" style="rounded=0;orthogonalLoop=1;jettySize=auto;html=1;entryX=0;entryY=0.25;entryDx=0;entryDy=0;startArrow=classic;startFill=1;exitX=1;exitY=0.75;exitDx=0;exitDy=0;" edge="1" parent="1" source="lMhWHMwM5XV4kthdbhf3-7" target="lMhWHMwM5XV4kthdbhf3-8">
          <mxGeometry relative="1" as="geometry">
            <mxPoint x="-1908.53" y="2140" as="sourcePoint" />
            <mxPoint x="-1848.53" y="2195" as="targetPoint" />
          </mxGeometry>
        </mxCell>
        <mxCell id="lMhWHMwM5XV4kthdbhf3-6" value="port 9103 - SSL&lt;div&gt;Connect sync&lt;/div&gt;" style="edgeLabel;html=1;align=center;verticalAlign=middle;resizable=0;points=[];labelBackgroundColor=none;" vertex="1" connectable="0" parent="lMhWHMwM5XV4kthdbhf3-5">
          <mxGeometry x="-0.3688" relative="1" as="geometry">
            <mxPoint x="18" y="-18" as="offset" />
          </mxGeometry>
        </mxCell>
        <mxCell id="lMhWHMwM5XV4kthdbhf3-7" value="&lt;b style=&quot;text-align: left;&quot;&gt;vm:&lt;span style=&quot;white-space: pre;&quot;&gt;&#x9;&lt;span style=&quot;white-space: pre;&quot;&gt;&#x9;&lt;/span&gt;&lt;/span&gt;kafka-node-8&lt;/b&gt;&lt;div style=&quot;text-align: left;&quot;&gt;&lt;b&gt;role:&lt;span style=&quot;white-space: pre;&quot;&gt;&#x9;&lt;/span&gt;Connect #2&lt;/b&gt;&lt;/div&gt;" style="rounded=0;whiteSpace=wrap;html=1;align=center;glass=1;shadow=1;fillColor=#d5e8d4;strokeColor=#82b366;labelPosition=center;verticalLabelPosition=middle;verticalAlign=middle;spacingTop=0;spacingLeft=0;spacingBottom=0;spacing=0;" vertex="1" parent="1">
          <mxGeometry x="-2121.0299999999997" y="2104.09" width="170" height="90" as="geometry" />
        </mxCell>
        <mxCell id="lMhWHMwM5XV4kthdbhf3-8" value="&lt;b&gt;vm:&lt;span style=&quot;white-space: pre;&quot;&gt;&#x9;&lt;span style=&quot;white-space: pre;&quot;&gt;&#x9;&lt;/span&gt;&lt;/span&gt;kafka-node-9&lt;/b&gt;&lt;div&gt;&lt;b&gt;role:&lt;span style=&quot;white-space: pre;&quot;&gt;&#x9;&lt;/span&gt;Connect #3&lt;/b&gt;&lt;/div&gt;" style="rounded=0;whiteSpace=wrap;html=1;align=center;glass=1;shadow=1;fillColor=#d5e8d4;strokeColor=#82b366;labelPosition=center;verticalLabelPosition=middle;verticalAlign=middle;spacingTop=0;spacingLeft=0;spacingBottom=0;spacing=0;" vertex="1" parent="1">
          <mxGeometry x="-1857.28" y="2149.09" width="170" height="90" as="geometry" />
        </mxCell>
        <mxCell id="lMhWHMwM5XV4kthdbhf3-9" value="" style="edgeStyle=orthogonalEdgeStyle;rounded=0;orthogonalLoop=1;jettySize=auto;html=1;entryX=0;entryY=0.75;entryDx=0;entryDy=0;exitX=1;exitY=0.75;exitDx=0;exitDy=0;startArrow=classic;startFill=1;" edge="1" parent="1" source="lMhWHMwM5XV4kthdbhf3-4" target="lMhWHMwM5XV4kthdbhf3-8">
          <mxGeometry relative="1" as="geometry">
            <mxPoint x="-1943.53" y="2135" as="sourcePoint" />
            <mxPoint x="-1795.53" y="2183" as="targetPoint" />
          </mxGeometry>
        </mxCell>
        <mxCell id="lMhWHMwM5XV4kthdbhf3-10" value="port 9103 - SSL&lt;div&gt;Connect sync&lt;/div&gt;" style="edgeLabel;html=1;align=center;verticalAlign=middle;resizable=0;points=[];labelBackgroundColor=none;" vertex="1" connectable="0" parent="lMhWHMwM5XV4kthdbhf3-9">
          <mxGeometry x="-0.3688" relative="1" as="geometry">
            <mxPoint x="73" y="15" as="offset" />
          </mxGeometry>
        </mxCell>
        <mxCell id="lMhWHMwM5XV4kthdbhf3-11" value="" style="rounded=0;whiteSpace=wrap;html=1;align=left;glass=1;shadow=1;verticalAlign=top;spacingLeft=5;fillColor=#f5f5f5;fontColor=#333333;strokeColor=#666666;fontStyle=1" vertex="1" parent="1">
          <mxGeometry x="-2337.2799999999997" y="1820" width="760" height="183.18" as="geometry" />
        </mxCell>
        <mxCell id="lMhWHMwM5XV4kthdbhf3-12" value="" style="rounded=0;orthogonalLoop=1;jettySize=auto;html=1;exitX=1;exitY=0.25;exitDx=0;exitDy=0;entryX=0;entryY=0.75;entryDx=0;entryDy=0;startArrow=classic;startFill=1;" edge="1" parent="1" source="lMhWHMwM5XV4kthdbhf3-14" target="lMhWHMwM5XV4kthdbhf3-17">
          <mxGeometry relative="1" as="geometry">
            <mxPoint x="-2118.5299999999997" y="1935.0344827586205" as="sourcePoint" />
            <mxPoint x="-2108.5299999999997" y="1935" as="targetPoint" />
          </mxGeometry>
        </mxCell>
        <mxCell id="lMhWHMwM5XV4kthdbhf3-13" value="port 9102 - SSL&lt;div&gt;Broker sync&lt;/div&gt;" style="edgeLabel;html=1;align=center;verticalAlign=middle;resizable=0;points=[];labelBackgroundColor=none;" vertex="1" connectable="0" parent="lMhWHMwM5XV4kthdbhf3-12">
          <mxGeometry x="0.292" y="2" relative="1" as="geometry">
            <mxPoint x="-12" y="-16" as="offset" />
          </mxGeometry>
        </mxCell>
        <mxCell id="lMhWHMwM5XV4kthdbhf3-14" value="&lt;b style=&quot;text-align: left;&quot;&gt;vm:&lt;span style=&quot;white-space: pre;&quot;&gt;&#x9;&lt;span style=&quot;white-space: pre;&quot;&gt;&#x9;&lt;/span&gt;&lt;/span&gt;kafka-node-4&lt;/b&gt;&lt;div style=&quot;text-align: left;&quot;&gt;&lt;b&gt;role:&lt;span style=&quot;white-space: pre;&quot;&gt;&#x9;&lt;/span&gt;Broker #1&lt;/b&gt;&lt;/div&gt;" style="rounded=0;whiteSpace=wrap;html=1;align=center;glass=1;shadow=1;fillColor=#d5e8d4;strokeColor=#82b366;labelPosition=center;verticalLabelPosition=middle;verticalAlign=middle;spacingTop=0;spacingLeft=0;spacingBottom=0;spacing=0;" vertex="1" parent="1">
          <mxGeometry x="-2307.2799999999997" y="1889.0900000000001" width="170" height="90" as="geometry" />
        </mxCell>
        <mxCell id="lMhWHMwM5XV4kthdbhf3-15" value="" style="rounded=0;orthogonalLoop=1;jettySize=auto;html=1;entryX=0;entryY=0.25;entryDx=0;entryDy=0;startArrow=classic;startFill=1;exitX=1;exitY=0.75;exitDx=0;exitDy=0;" edge="1" parent="1" source="lMhWHMwM5XV4kthdbhf3-17" target="lMhWHMwM5XV4kthdbhf3-18">
          <mxGeometry relative="1" as="geometry">
            <mxPoint x="-1828.53" y="1880" as="sourcePoint" />
            <mxPoint x="-1768.53" y="1935" as="targetPoint" />
          </mxGeometry>
        </mxCell>
        <mxCell id="lMhWHMwM5XV4kthdbhf3-16" value="port 9102 - SSL&lt;div&gt;Broker sync&lt;/div&gt;" style="edgeLabel;html=1;align=center;verticalAlign=middle;resizable=0;points=[];labelBackgroundColor=none;" vertex="1" connectable="0" parent="lMhWHMwM5XV4kthdbhf3-15">
          <mxGeometry x="-0.3688" relative="1" as="geometry">
            <mxPoint x="18" y="-18" as="offset" />
          </mxGeometry>
        </mxCell>
        <mxCell id="lMhWHMwM5XV4kthdbhf3-17" value="&lt;b style=&quot;text-align: left;&quot;&gt;vm:&lt;span style=&quot;white-space: pre;&quot;&gt;&#x9;&lt;span style=&quot;white-space: pre;&quot;&gt;&#x9;&lt;/span&gt;&lt;/span&gt;kafka-node-5&lt;/b&gt;&lt;div style=&quot;text-align: left;&quot;&gt;&lt;b&gt;role:&lt;span style=&quot;white-space: pre;&quot;&gt;&#x9;&lt;/span&gt;Broker #2&lt;/b&gt;&lt;/div&gt;" style="rounded=0;whiteSpace=wrap;html=1;align=center;glass=1;shadow=1;fillColor=#d5e8d4;strokeColor=#82b366;labelPosition=center;verticalLabelPosition=middle;verticalAlign=middle;spacingTop=0;spacingLeft=0;spacingBottom=0;spacing=0;" vertex="1" parent="1">
          <mxGeometry x="-2041.03" y="1844.09" width="170" height="90" as="geometry" />
        </mxCell>
        <mxCell id="lMhWHMwM5XV4kthdbhf3-18" value="&lt;b style=&quot;text-align: left;&quot;&gt;vm:&lt;span style=&quot;white-space: pre;&quot;&gt;&#x9;&lt;span style=&quot;white-space: pre;&quot;&gt;&#x9;&lt;/span&gt;&lt;/span&gt;kafka-node-6&lt;/b&gt;&lt;div style=&quot;text-align: left;&quot;&gt;&lt;b&gt;role:&lt;span style=&quot;white-space: pre;&quot;&gt;&#x9;&lt;/span&gt;Broker #3&lt;/b&gt;&lt;/div&gt;" style="rounded=0;whiteSpace=wrap;html=1;align=center;glass=1;shadow=1;fillColor=#d5e8d4;strokeColor=#82b366;labelPosition=center;verticalLabelPosition=middle;verticalAlign=middle;spacingTop=0;spacingLeft=0;spacingBottom=0;spacing=0;" vertex="1" parent="1">
          <mxGeometry x="-1777.28" y="1889.0900000000001" width="170" height="90" as="geometry" />
        </mxCell>
        <mxCell id="lMhWHMwM5XV4kthdbhf3-19" value="" style="edgeStyle=orthogonalEdgeStyle;rounded=0;orthogonalLoop=1;jettySize=auto;html=1;entryX=0;entryY=0.75;entryDx=0;entryDy=0;exitX=1;exitY=0.75;exitDx=0;exitDy=0;startArrow=classic;startFill=1;" edge="1" parent="1" source="lMhWHMwM5XV4kthdbhf3-14" target="lMhWHMwM5XV4kthdbhf3-18">
          <mxGeometry relative="1" as="geometry">
            <mxPoint x="-1863.53" y="1875" as="sourcePoint" />
            <mxPoint x="-1715.53" y="1923" as="targetPoint" />
          </mxGeometry>
        </mxCell>
        <mxCell id="lMhWHMwM5XV4kthdbhf3-20" value="port 9102 - SSL&lt;div&gt;Broker sync&lt;/div&gt;" style="edgeLabel;html=1;align=center;verticalAlign=middle;resizable=0;points=[];labelBackgroundColor=none;" vertex="1" connectable="0" parent="lMhWHMwM5XV4kthdbhf3-19">
          <mxGeometry x="-0.3688" relative="1" as="geometry">
            <mxPoint x="73" y="15" as="offset" />
          </mxGeometry>
        </mxCell>
        <mxCell id="lMhWHMwM5XV4kthdbhf3-24" value="" style="rounded=0;orthogonalLoop=1;jettySize=auto;html=1;entryX=0.186;entryY=0.006;entryDx=0;entryDy=0;startArrow=classic;startFill=1;entryPerimeter=0;exitX=0.291;exitY=0.998;exitDx=0;exitDy=0;exitPerimeter=0;" edge="1" parent="1">
          <mxGeometry relative="1" as="geometry">
            <mxPoint x="-2182.2799999999997" y="1743.8136399999999" as="sourcePoint" />
            <mxPoint x="-2182.08" y="1821.09908" as="targetPoint" />
          </mxGeometry>
        </mxCell>
        <mxCell id="lMhWHMwM5XV4kthdbhf3-27" value="port 9104 - SSL&lt;div&gt;Controller-Broker sync&lt;/div&gt;" style="edgeLabel;html=1;align=center;verticalAlign=middle;resizable=0;points=[];labelBackgroundColor=none;" vertex="1" connectable="0" parent="lMhWHMwM5XV4kthdbhf3-24">
          <mxGeometry x="0.0355" y="1" relative="1" as="geometry">
            <mxPoint x="-60" as="offset" />
          </mxGeometry>
        </mxCell>
        <mxCell id="lMhWHMwM5XV4kthdbhf3-30" value="&lt;div&gt;&lt;b&gt;Interconnection Map&lt;/b&gt;&lt;/div&gt;" style="points=[];aspect=fixed;align=left;shadow=0;dashed=0;fillColor=#FF6A00;strokeColor=none;shape=mxgraph.alibaba_cloud.kafka;labelPosition=right;verticalLabelPosition=middle;verticalAlign=middle;html=1;" vertex="1" parent="1">
          <mxGeometry x="-2479.26" y="1510" width="41.85" height="31" as="geometry" />
        </mxCell>
        <mxCell id="lMhWHMwM5XV4kthdbhf3-31" value="Cluster&lt;div&gt;&lt;b&gt;Controllers&lt;/b&gt;&lt;/div&gt;" style="points=[];aspect=fixed;align=left;shadow=0;dashed=0;fillColor=#FF6A00;strokeColor=none;shape=mxgraph.alibaba_cloud.kafka;labelPosition=right;verticalLabelPosition=middle;verticalAlign=middle;html=1;" vertex="1" parent="1">
          <mxGeometry x="-2450.98" y="456.72" width="41.85" height="31" as="geometry" />
        </mxCell>
        <mxCell id="lMhWHMwM5XV4kthdbhf3-32" value="Cluster&lt;div&gt;&lt;b&gt;Brokers&lt;/b&gt;&lt;/div&gt;" style="points=[];aspect=fixed;align=left;shadow=0;dashed=0;fillColor=#FF6A00;strokeColor=none;shape=mxgraph.alibaba_cloud.kafka;labelPosition=right;verticalLabelPosition=middle;verticalAlign=middle;html=1;" vertex="1" parent="1">
          <mxGeometry x="-2450.98" y="785" width="41.85" height="31" as="geometry" />
        </mxCell>
        <mxCell id="lMhWHMwM5XV4kthdbhf3-33" value="Cluster&lt;div&gt;&lt;b&gt;Connect&lt;/b&gt;&lt;/div&gt;" style="points=[];aspect=fixed;align=left;shadow=0;dashed=0;fillColor=#FF6A00;strokeColor=none;shape=mxgraph.alibaba_cloud.kafka;labelPosition=right;verticalLabelPosition=middle;verticalAlign=middle;html=1;" vertex="1" parent="1">
          <mxGeometry x="-2409.13" y="2090" width="41.85" height="31" as="geometry" />
        </mxCell>
        <mxCell id="lMhWHMwM5XV4kthdbhf3-37" value="Cluster&lt;div&gt;&lt;b&gt;Controllers&lt;/b&gt;&lt;/div&gt;" style="points=[];aspect=fixed;align=left;shadow=0;dashed=0;fillColor=#FF6A00;strokeColor=none;shape=mxgraph.alibaba_cloud.kafka;labelPosition=right;verticalLabelPosition=middle;verticalAlign=middle;html=1;" vertex="1" parent="1">
          <mxGeometry x="-2409.13" y="1570" width="41.85" height="31" as="geometry" />
        </mxCell>
        <mxCell id="lMhWHMwM5XV4kthdbhf3-38" value="Cluster&lt;div&gt;&lt;b&gt;Brokers&lt;/b&gt;&lt;/div&gt;" style="points=[];aspect=fixed;align=left;shadow=0;dashed=0;fillColor=#FF6A00;strokeColor=none;shape=mxgraph.alibaba_cloud.kafka;labelPosition=right;verticalLabelPosition=middle;verticalAlign=middle;html=1;" vertex="1" parent="1">
          <mxGeometry x="-2330" y="1830" width="41.85" height="31" as="geometry" />
        </mxCell>
        <mxCell id="lMhWHMwM5XV4kthdbhf3-41" value="Cluster&lt;div&gt;&lt;b&gt;Connect&lt;/b&gt;&lt;/div&gt;" style="points=[];aspect=fixed;align=left;shadow=0;dashed=0;fillColor=#FF6A00;strokeColor=none;shape=mxgraph.alibaba_cloud.kafka;labelPosition=right;verticalLabelPosition=middle;verticalAlign=middle;html=1;" vertex="1" parent="1">
          <mxGeometry x="-2450.68" y="1115.14" width="41.85" height="31" as="geometry" />
        </mxCell>
        <mxCell id="lMhWHMwM5XV4kthdbhf3-44" value="&lt;b&gt;GUI&lt;/b&gt;&lt;div&gt;&lt;b&gt;Management&lt;/b&gt;&lt;/div&gt;&lt;div&gt;&lt;b&gt;Backup &amp;amp; Restore&lt;/b&gt;&lt;/div&gt;" style="points=[];aspect=fixed;align=left;shadow=0;dashed=0;fillColor=#FF6A00;strokeColor=none;shape=mxgraph.alibaba_cloud.kafka;labelPosition=right;verticalLabelPosition=middle;verticalAlign=middle;html=1;" vertex="1" parent="1">
          <mxGeometry x="-2450.68" y="130" width="41.85" height="31" as="geometry" />
        </mxCell>
        <mxCell id="lMhWHMwM5XV4kthdbhf3-45" value="Secure Debezium Streaming" style="rounded=0;whiteSpace=wrap;html=1;align=left;glass=1;shadow=1;verticalAlign=top;spacingLeft=5;fillColor=#f5f5f5;fontColor=#333333;strokeColor=#666666;fontStyle=1" vertex="1" parent="1">
          <mxGeometry x="-3680" y="1405.45" width="880" height="257.73" as="geometry" />
        </mxCell>
        <mxCell id="lMhWHMwM5XV4kthdbhf3-46" value="&lt;div&gt;&lt;div&gt;&lt;br&gt;&lt;/div&gt;&lt;/div&gt;" style="rounded=0;whiteSpace=wrap;html=1;align=left;glass=1;shadow=1;fillColor=#d5e8d4;strokeColor=#82b366;labelPosition=center;verticalLabelPosition=middle;verticalAlign=top;spacingTop=0;spacingLeft=5;spacingBottom=5;" vertex="1" parent="1">
          <mxGeometry x="-3085" y="1484.32" width="240" height="110" as="geometry" />
        </mxCell>
        <mxCell id="lMhWHMwM5XV4kthdbhf3-47" value="" style="edgeStyle=orthogonalEdgeStyle;rounded=0;orthogonalLoop=1;jettySize=auto;html=1;entryX=0;entryY=0.5;entryDx=0;entryDy=0;" edge="1" parent="1" source="lMhWHMwM5XV4kthdbhf3-49" target="lMhWHMwM5XV4kthdbhf3-50">
          <mxGeometry relative="1" as="geometry">
            <mxPoint x="-3155" y="1529.32" as="targetPoint" />
          </mxGeometry>
        </mxCell>
        <mxCell id="lMhWHMwM5XV4kthdbhf3-48" value="port 9110 - SSL&lt;div&gt;Pub into Topic&lt;/div&gt;" style="edgeLabel;html=1;align=center;verticalAlign=middle;resizable=0;points=[];labelBackgroundColor=none;" vertex="1" connectable="0" parent="lMhWHMwM5XV4kthdbhf3-47">
          <mxGeometry x="0.0818" y="-1" relative="1" as="geometry">
            <mxPoint x="-6" y="14" as="offset" />
          </mxGeometry>
        </mxCell>
        <mxCell id="lMhWHMwM5XV4kthdbhf3-50" value="&lt;b&gt;vms: kafka-nodes 4-6&lt;/b&gt;" style="rounded=0;whiteSpace=wrap;html=1;align=left;glass=1;shadow=1;fillColor=#d5e8d4;strokeColor=#82b366;labelPosition=center;verticalLabelPosition=middle;verticalAlign=top;spacingTop=0;spacingLeft=5;spacingBottom=0;spacing=0;" vertex="1" parent="1">
          <mxGeometry x="-3095" y="1474.32" width="240" height="110" as="geometry" />
        </mxCell>
        <mxCell id="lMhWHMwM5XV4kthdbhf3-55" value="&lt;div style=&quot;&quot;&gt;&lt;br&gt;&lt;/div&gt;" style="rounded=0;whiteSpace=wrap;html=1;align=center;glass=1;shadow=1;fillColor=#d5e8d4;strokeColor=#82b366;labelPosition=center;verticalLabelPosition=middle;verticalAlign=top;spacingTop=0;spacingLeft=0;spacingBottom=0;spacing=0;" vertex="1" parent="1">
          <mxGeometry x="-3448" y="1484.32" width="240" height="110" as="geometry" />
        </mxCell>
        <mxCell id="lMhWHMwM5XV4kthdbhf3-51" value="" style="rounded=0;orthogonalLoop=1;jettySize=auto;html=1;endArrow=none;endFill=0;startArrow=classic;startFill=1;exitX=1;exitY=0.5;exitDx=0;exitDy=0;exitPerimeter=0;" edge="1" parent="1" source="lMhWHMwM5XV4kthdbhf3-54" target="lMhWHMwM5XV4kthdbhf3-49">
          <mxGeometry relative="1" as="geometry">
            <mxPoint x="-3585" y="1529.3199999999997" as="sourcePoint" />
          </mxGeometry>
        </mxCell>
        <mxCell id="lMhWHMwM5XV4kthdbhf3-52" value="Port 1433 - SSL&lt;div&gt;Read CDC tables&lt;/div&gt;" style="edgeLabel;html=1;align=center;verticalAlign=middle;resizable=0;points=[];labelBackgroundColor=none;" vertex="1" connectable="0" parent="lMhWHMwM5XV4kthdbhf3-51">
          <mxGeometry x="0.1317" y="1" relative="1" as="geometry">
            <mxPoint x="-2" y="-24" as="offset" />
          </mxGeometry>
        </mxCell>
        <mxCell id="lMhWHMwM5XV4kthdbhf3-54" value="" style="outlineConnect=0;dashed=0;verticalLabelPosition=bottom;verticalAlign=top;align=center;html=1;shape=mxgraph.aws3.ms_sql_instance_2;fillColor=#2E73B8;gradientColor=none;" vertex="1" parent="1">
          <mxGeometry x="-3640" y="1447" width="60" height="63" as="geometry" />
        </mxCell>
        <mxCell id="lMhWHMwM5XV4kthdbhf3-49" value="&lt;div style=&quot;&quot;&gt;&lt;b style=&quot;background-color: initial;&quot;&gt;vms: kafka-nodes 7-9&lt;/b&gt;&lt;/div&gt;" style="rounded=0;whiteSpace=wrap;html=1;align=left;glass=1;shadow=1;fillColor=#d5e8d4;strokeColor=#82b366;labelPosition=center;verticalLabelPosition=middle;verticalAlign=top;spacingTop=0;spacingLeft=5;spacingBottom=0;spacing=0;" vertex="1" parent="1">
          <mxGeometry x="-3458" y="1474.32" width="240" height="110" as="geometry" />
        </mxCell>
        <mxCell id="lMhWHMwM5XV4kthdbhf3-56" value="" style="outlineConnect=0;dashed=0;verticalLabelPosition=bottom;verticalAlign=top;align=center;html=1;shape=mxgraph.aws3.oracle_db_instance_2;fillColor=#2E73B8;gradientColor=none;" vertex="1" parent="1">
          <mxGeometry x="-3640" y="1561" width="60" height="63" as="geometry" />
        </mxCell>
        <mxCell id="lMhWHMwM5XV4kthdbhf3-57" value="" style="rounded=0;orthogonalLoop=1;jettySize=auto;html=1;endArrow=none;endFill=0;startArrow=classic;startFill=1;exitX=1;exitY=0.5;exitDx=0;exitDy=0;exitPerimeter=0;entryX=0;entryY=0.75;entryDx=0;entryDy=0;" edge="1" parent="1" source="lMhWHMwM5XV4kthdbhf3-56" target="lMhWHMwM5XV4kthdbhf3-49">
          <mxGeometry relative="1" as="geometry">
            <mxPoint x="-3575" y="1488" as="sourcePoint" />
            <mxPoint x="-3465" y="1513" as="targetPoint" />
          </mxGeometry>
        </mxCell>
        <mxCell id="lMhWHMwM5XV4kthdbhf3-58" value="Port 1521 - SSL&lt;div&gt;LogMiner/XStream&lt;/div&gt;" style="edgeLabel;html=1;align=center;verticalAlign=middle;resizable=0;points=[];labelBackgroundColor=none;" vertex="1" connectable="0" parent="lMhWHMwM5XV4kthdbhf3-57">
          <mxGeometry x="0.1317" y="1" relative="1" as="geometry">
            <mxPoint x="1" y="30" as="offset" />
          </mxGeometry>
        </mxCell>
      </root>
    </mxGraphModel>
  </diagram>
</mxfile>
